<svg width="100" height="100" viewBox="0 0 100 100" fill="none" xmlns="http://www.w3.org/2000/svg">
<path d="M39.0059 21.6897L10.6014 22.7558V52.6077C10.6014 52.6077 29.3591 48.3431 29.3591 60.6037C29.3591 72.8643 10.0655 64.8682 10.0655 64.8682L7.92175 76.0627C7.92175 76.0627 42.7574 87.2571 42.7574 57.4053C42.7574 36.0825 20.2482 40.3471 20.2482 40.3471V35.0164L39.0059 34.4833V21.6897Z" stroke="#D81920" stroke-width="3" stroke-miterlimit="10"/>
<path d="M47.271 49.8145C46.2795 64.6711 55.2939 77.3581 67.4167 78.1577C79.5395 78.9573 90.1456 67.5656 91.1371 52.709C92.1286 37.8524 83.0659 21.6311 70.9592 20.8315C58.8525 20.0319 48.2624 34.9632 47.271 49.8145Z" stroke="#D81920" stroke-width="3" stroke-miterlimit="10"/>
</svg>
