<svg width="100" height="100" viewBox="0 0 100 100" fill="none" xmlns="http://www.w3.org/2000/svg">
<path d="M86.3123 86.875H82.8853V37.115C82.8853 34.7989 81.0009 32.9147 78.685 32.9147H71.025C68.7089 32.9147 66.8246 34.799 66.8246 37.115V86.875H58.1228V59.6601C58.1228 57.344 56.2386 55.4598 53.9225 55.4598H46.2625C43.9464 55.4598 42.0622 57.3442 42.0622 59.6601V86.875H33.3603V72.7806C33.3603 70.4645 31.4759 68.5803 29.16 68.5803H21.4998C19.1837 68.5803 17.2995 70.4647 17.2995 72.7806V86.875H13.6876C12.8247 86.875 12.1251 87.5745 12.1251 88.4375C12.1251 89.3005 12.8247 90 13.6876 90H86.3123C87.1753 90 87.8748 89.3005 87.8748 88.4375C87.8748 87.5745 87.1753 86.875 86.3123 86.875ZM30.235 86.875H20.4243V72.7806C20.4243 72.1876 20.9067 71.7053 21.4997 71.7053H29.1597C29.7526 71.7053 30.235 72.1876 30.235 72.7806V86.875ZM54.9976 86.875H45.187V59.6601C45.187 59.0672 45.6693 58.5848 46.2623 58.5848H53.9223C54.5151 58.5848 54.9976 59.0672 54.9976 59.6601V86.875ZM79.7603 86.875H69.9496V37.115C69.9496 36.522 70.432 36.0397 71.025 36.0397H78.685C79.2779 36.0397 79.7603 36.522 79.7603 37.115V86.875Z" fill="#D81920"/>
<path d="M82.8815 11.6431C82.9034 11.2167 82.7534 10.7831 82.4278 10.4575C82.1022 10.1319 81.6686 9.98172 81.2422 10.0038C81.217 10.0027 81.1922 10 81.1665 10H71.7134C70.8504 10 70.1509 10.6995 70.1509 11.5625C70.1509 12.4255 70.8504 13.125 71.7134 13.125H77.5504L62.104 28.5716L56.279 22.7466C55.9861 22.4536 55.5886 22.2889 55.1742 22.2889C54.7598 22.2889 54.3623 22.4536 54.0694 22.7466L25.9804 50.8356C25.3703 51.4458 25.3703 52.4352 25.9804 53.0455C26.2856 53.3503 26.6854 53.5028 27.0853 53.5028C27.4851 53.5028 27.8851 53.3503 28.1901 53.0452L55.1742 26.0609L60.9992 31.8859C61.6093 32.4961 62.5987 32.4961 63.209 31.8859L79.7603 15.3348V20.6177C79.7603 21.4806 80.4598 22.1802 81.3228 22.1802C82.1858 22.1802 82.8853 21.4806 82.8853 20.6177V11.7188C82.8853 11.6933 82.8826 11.6684 82.8815 11.6431Z" fill="#D81920"/>
<path d="M21.8187 58.9547C22.6817 58.9547 23.3812 58.2552 23.3812 57.3922C23.3812 56.5293 22.6817 55.8297 21.8187 55.8297C20.9558 55.8297 20.2562 56.5293 20.2562 57.3922C20.2562 58.2552 20.9558 58.9547 21.8187 58.9547Z" fill="#D81920"/>
</svg>
