<svg width="100" height="100" viewBox="0 0 100 100" fill="none" xmlns="http://www.w3.org/2000/svg">
<path d="M53.2188 38.2656C59.964 38.2656 65.4531 32.7778 65.4531 26.0312C65.4531 19.2847 59.964 13.7969 53.2188 13.7969C46.4735 13.7969 40.9844 19.2847 40.9844 26.0312C40.9844 32.7778 46.4735 38.2656 53.2188 38.2656ZM53.2188 16.5156C58.4659 16.5156 62.7344 20.7854 62.7344 26.0312C62.7344 31.2771 58.4659 35.5469 53.2188 35.5469C47.9716 35.5469 43.7031 31.2771 43.7031 26.0312C43.7031 20.7854 47.9716 16.5156 53.2188 16.5156Z" fill="#D81920"/>
<path d="M84.4844 61.375H80.1561C80.3084 60.9482 80.4062 60.4941 80.4062 60.0156V49.1406C80.4062 46.8922 78.5765 45.0625 76.3281 45.0625H62.7344C60.486 45.0625 58.6562 46.8922 58.6562 49.1406V60.0156C58.6562 60.4941 58.7541 60.9482 58.9064 61.375H52.9673C53.1209 60.9482 53.2188 60.4941 53.2188 60.0156V49.1406C53.2188 46.8922 51.389 45.0625 49.1406 45.0625H35.5469C33.2985 45.0625 31.4688 46.8922 31.4688 49.1406V60.0156C31.4688 60.4941 31.5666 60.9482 31.7189 61.375H26.522C26.2093 60.0985 26.0394 58.7664 26.0312 57.4002C25.9782 48.2163 32.9804 40.5575 42.0583 39.7174C45.1033 42.2065 48.9884 43.7031 53.2188 43.7031C62.9627 43.7031 70.8906 35.7752 70.8906 26.0312C70.8906 16.2872 62.9627 8.35938 53.2188 8.35938C43.4748 8.35938 35.5469 16.2872 35.5469 26.0312C35.5469 26.401 35.5795 26.7612 35.6026 27.1255C32.8444 27.8637 30.2045 28.9512 27.7468 30.4139L23.3125 27.7033L14.1095 36.9062L16.8201 41.3405C15.2895 43.9125 14.1449 46.6747 13.4095 49.5715L8.35938 50.7895V63.8042L13.4095 65.0222C14.1462 67.919 15.2895 70.6813 16.8201 73.2532L14.1095 77.6875L23.3125 86.8905L27.7454 84.1812C30.3187 85.7119 33.081 86.8565 35.9764 87.5933L37.1944 92.6406H50.2105L51.4285 87.5919C54.3239 86.8551 57.0862 85.7105 59.6595 84.1799L64.0897 86.8877L73.3402 77.6875H84.4844C88.9825 77.6875 92.6406 74.0294 92.6406 69.5312C92.6406 65.0331 88.9825 61.375 84.4844 61.375ZM80.4062 73.6094C78.1578 73.6094 76.3281 71.7797 76.3281 69.5312C76.3281 67.2828 78.1578 65.4531 80.4062 65.4531C82.6547 65.4531 84.4844 67.2828 84.4844 69.5312C84.4844 71.7797 82.6547 73.6094 80.4062 73.6094ZM73.6094 69.5312C73.6094 71.762 74.705 73.729 76.3703 74.9688H68.1297C69.795 73.729 70.8906 71.762 70.8906 69.5312C70.8906 67.3005 69.795 65.3335 68.1297 64.0938H76.3281H76.3703C74.705 65.3335 73.6094 67.3005 73.6094 69.5312ZM51.8172 74.9688C53.4825 73.729 54.5781 71.762 54.5781 69.5312C54.5781 67.3005 53.4825 65.3335 51.8172 64.0938H60.0578C58.3925 65.3335 57.2969 67.3005 57.2969 69.5312C57.2969 71.762 58.3925 73.729 60.0578 74.9688H51.8172ZM47.7812 65.4531C50.0297 65.4531 51.8594 67.2828 51.8594 69.5312C51.8594 71.7797 50.0297 73.6094 47.7812 73.6094C45.5328 73.6094 43.7031 71.7797 43.7031 69.5312C43.7031 67.2828 45.5328 65.4531 47.7812 65.4531ZM64.0938 73.6094C61.8453 73.6094 60.0156 71.7797 60.0156 69.5312C60.0156 67.2828 61.8453 65.4531 64.0938 65.4531C66.3422 65.4531 68.1719 67.2828 68.1719 69.5312C68.1719 71.7797 66.3422 73.6094 64.0938 73.6094ZM66.8125 47.7812H72.25V50.5H66.8125V47.7812ZM61.375 60.0156V49.1406C61.375 48.3903 61.9854 47.7812 62.7344 47.7812H64.0938V53.2188H74.9688V47.7812H76.3281C77.0771 47.7812 77.6875 48.3903 77.6875 49.1406V60.0156C77.6875 60.766 77.0771 61.375 76.3281 61.375H62.7344C61.9854 61.375 61.375 60.766 61.375 60.0156ZM39.625 47.7812H45.0625V50.5H39.625V47.7812ZM34.1875 60.0156V49.1406C34.1875 48.3903 34.7979 47.7812 35.5469 47.7812H36.9062V53.2188H47.7812V47.7812H49.1406C49.8896 47.7812 50.5 48.3903 50.5 49.1406V60.0156C50.5 60.766 49.8896 61.375 49.1406 61.375H35.5469C34.7979 61.375 34.1875 60.766 34.1875 60.0156ZM35.5469 64.0938H43.7453C42.08 65.3335 40.9844 67.3005 40.9844 69.5312C40.9844 71.7511 42.0692 73.7073 43.7208 74.9484C36.4006 74.7363 30.1298 70.3156 27.4382 64.0938H35.5469ZM23.3125 57.4165C23.3764 68.5946 32.7765 77.6875 44.2673 77.6875H54.5441C51.2245 79.4492 47.4971 80.4062 43.7031 80.4062C30.9603 80.4062 20.5938 70.0397 20.5938 57.2969C20.5938 46.7563 27.8501 37.5139 37.9734 34.9256C38.4695 35.7725 39.0228 36.5827 39.6481 37.3331C30.244 39.2321 23.2568 47.561 23.3125 57.4165ZM53.2188 11.0781C61.4634 11.0781 68.1719 17.7866 68.1719 26.0312C68.1719 34.2759 61.4634 40.9844 53.2188 40.9844C44.9741 40.9844 38.2656 34.2759 38.2656 26.0312C38.2656 17.7866 44.9741 11.0781 53.2188 11.0781ZM63.6873 83.4553L59.6472 80.9853L58.9336 81.4367C56.1795 83.178 53.1753 84.4232 50.0052 85.1382L49.1814 85.3245L48.0694 89.9219H39.3355L38.2262 85.3231L37.4024 85.1369C34.2324 84.4232 31.2281 83.178 28.474 81.4353L27.7604 80.984L23.723 83.4526L17.5474 77.277L20.016 73.2383L19.5633 72.5246C17.8233 69.7732 16.5782 66.769 15.8631 63.5962L15.6769 62.7724L11.0781 61.6645V52.9292L15.6769 51.8213L15.8631 50.9975C16.5782 47.8248 17.822 44.8205 19.5633 42.0692L20.016 41.3555L17.5474 37.3168L23.723 31.1411L27.7604 33.6098L28.474 33.1585C30.8067 31.6835 33.3284 30.5879 35.9724 29.8443C36.1695 30.7347 36.4386 31.5979 36.7649 32.4325C25.7308 35.5102 17.875 45.7028 17.875 57.2969C17.875 71.539 29.461 83.125 43.7031 83.125C49.4275 83.125 55.0213 81.1892 59.529 77.6875H69.485L63.6873 83.4553ZM84.4844 74.9688H84.4422C86.1075 73.729 87.2031 71.762 87.2031 69.5312C87.2031 67.3005 86.1075 65.3335 84.4422 64.0938H84.4844C87.4832 64.0938 89.9219 66.5325 89.9219 69.5312C89.9219 72.53 87.4832 74.9688 84.4844 74.9688Z" fill="#D81920"/>
<path d="M60.9767 22.9142L59.0546 20.9921L51.8594 28.1872L48.7423 25.0702L46.8202 26.9923L51.8594 32.0315L60.9767 22.9142Z" fill="#D81920"/>
</svg>
