<svg width="100" height="100" viewBox="0 0 100 100" fill="none" xmlns="http://www.w3.org/2000/svg">
<path fill-rule="evenodd" clip-rule="evenodd" d="M85.3125 37.5H81.6805H65.4033H57.0305C57.8934 37.5 58.593 38.1997 58.593 39.0625C58.593 39.9253 57.8934 40.625 57.0305 40.625H85.3125C86.1741 40.625 86.875 41.3259 86.875 42.1875C86.875 43.0491 86.1741 43.75 85.3125 43.75H14.6875C13.8259 43.75 13.125 43.0491 13.125 42.1875C13.125 41.3259 13.8259 40.625 14.6875 40.625H57.0305C56.1675 40.625 55.468 39.9253 55.468 39.0625C55.468 38.1997 56.1675 37.5 57.0305 37.5H34.5966H18.3194H14.6875C12.1028 37.5 10 39.6028 10 42.1875C10 44.7722 12.1028 46.875 14.6875 46.875H47.2633L26.8875 81.3933C26.6023 81.8762 26.598 82.4752 26.8763 82.9622C27.1544 83.4494 27.6722 83.75 28.2331 83.75H71.767C72.328 83.75 72.8458 83.4494 73.1239 82.9622C73.402 82.4752 73.3977 81.8762 73.1127 81.3933L52.7367 46.875H85.3125C87.8972 46.875 90 44.7722 90 42.1875C90 39.6028 87.8972 37.5 85.3125 37.5ZM50 48.3862L30.9698 80.625H69.0302L50 48.3862Z" fill="#D81920"/>
<path d="M57.0305 37.5C56.1675 37.5 55.468 38.1997 55.468 39.0625C55.468 39.9253 56.1675 40.625 57.0305 40.625C57.8934 40.625 58.593 39.9253 58.593 39.0625C58.593 38.1997 57.8934 37.5 57.0305 37.5Z" fill="#D81920"/>
<path d="M26.5 26.12C26.5 29.0709 25.5059 31.7152 24.0377 33.598C22.5551 35.4993 20.7025 36.5 19 36.5C15.5142 36.5 11.5 32.5162 11.5 26.48C11.5 23.4878 12.5207 19.8642 14.0939 17.0021C14.8772 15.5772 15.76 14.4103 16.6532 13.6185C17.5548 12.8192 18.3507 12.5 19 12.5C19.6692 12.5 20.4718 12.8147 21.3674 13.5801C22.2568 14.3403 23.1357 15.4622 23.9154 16.8388C25.4816 19.604 26.5 23.1317 26.5 26.12Z" stroke="#D81920" stroke-width="3"/>
<path d="M88.5 26.12C88.5 29.0709 87.5059 31.7152 86.0377 33.598C84.5551 35.4993 82.7025 36.5 81 36.5C77.5142 36.5 73.5 32.5162 73.5 26.48C73.5 23.4878 74.5207 19.8642 76.0939 17.0021C76.8772 15.5772 77.76 14.4103 78.6532 13.6185C79.5548 12.8192 80.3507 12.5 81 12.5C81.6692 12.5 82.4718 12.8147 83.3674 13.5801C84.2568 14.3403 85.1357 15.4622 85.9154 16.8388C87.4816 19.604 88.5 23.1317 88.5 26.12Z" stroke="#D81920" stroke-width="3"/>
</svg>
