<svg width="100" height="100" viewBox="0 0 100 100" fill="none" xmlns="http://www.w3.org/2000/svg">
<path d="M17.5837 39.0674L26.3972 34.8523C27.5654 34.2939 28.0592 32.8937 27.5013 31.7255C26.9428 30.5567 25.5439 30.0623 24.3763 30.6208L20.81 32.3261C29.0455 15.6769 49.6577 9.82488 65.348 19.0558C66.4637 19.7126 67.8999 19.3396 68.556 18.2233C69.2121 17.107 68.8392 15.6696 67.7241 15.0129C49.4422 4.25725 25.4694 11.3807 16.2867 30.9156L14.4587 27.0893C13.9008 25.9205 12.5013 25.4261 11.3337 25.9845C10.1661 26.543 9.6717 27.9432 10.2296 29.1114L14.4581 37.9627C15.0165 39.1315 16.4161 39.6253 17.5837 39.0674Z" fill="#D81920"/>
<path d="M58.7024 77.6318L50.647 72.1027C49.5801 71.3702 48.1208 71.6418 47.3883 72.7093C46.6559 73.7775 46.9281 75.2374 47.995 75.9698L51.3031 78.241C33.5614 79.4159 17.2974 65.1202 17.4976 46.2476C17.511 44.9524 16.4728 43.8916 15.1789 43.8776C13.9148 43.855 12.8241 44.8822 12.8101 46.1975C12.5775 68.1433 31.6663 84.6155 52.2675 82.8717L49.8969 86.3281C49.1645 87.3962 49.4361 88.8562 50.5036 89.5886C51.5711 90.321 53.0304 90.0494 53.7622 88.9813L59.3091 80.8923C60.0409 79.8248 59.7699 78.3649 58.7024 77.6318Z" fill="#D81920"/>
<path d="M85.9728 23.8471C86.0729 22.5562 85.1086 21.4276 83.8183 21.3275L74.0423 20.5658C72.7539 20.4688 71.6241 21.4301 71.524 22.7216L70.7653 32.4659C70.6597 33.8245 71.7315 34.9933 73.1048 34.9933C74.3164 34.9927 75.343 34.0589 75.4388 32.8302L75.744 28.9063C85.9497 44.2792 80.8734 65.0202 65.0018 74.0918C63.8781 74.7339 63.4875 76.1664 64.1296 77.2907C64.7717 78.4156 66.2029 78.8062 67.3272 78.1641C85.8996 67.5495 91.4324 43.2526 79.215 25.6726L83.4539 26.0028C84.743 26.1023 85.8721 25.1386 85.9728 23.8471Z" fill="#D81920"/>
<path d="M59.9444 48.5779C59.9444 52.3163 58.6219 55.6688 56.667 58.0563C54.6921 60.4683 52.237 61.7223 50 61.7223C45.3906 61.7223 40.0555 56.6944 40.0555 49.0519C40.0555 45.2379 41.4289 40.5681 43.5639 36.869C44.6243 35.0317 45.8095 33.5454 46.9919 32.5471C48.1846 31.5401 49.2032 31.1667 50 31.1667C50.8286 31.1667 51.8588 31.5381 53.0427 32.5017C54.2196 33.4597 55.3983 34.8874 56.4526 36.6601C58.5754 40.2295 59.9444 44.7708 59.9444 48.5779Z" stroke="#D81920" stroke-width="5"/>
</svg>
