<svg width="24" height="24" viewBox="0 0 24 24" fill="none" xmlns="http://www.w3.org/2000/svg">
<path d="M9.49834 24C9.28234 24 9.07511 23.9002 8.94053 23.7248L6.93269 21.1071L3.88169 22.3725C3.63428 22.4751 3.35008 22.4282 3.1487 22.2516C2.94733 22.0751 2.8638 21.7993 2.93326 21.5407L4.91519 14.1596C4.97205 13.9477 5.12458 13.7746 5.3275 13.6913C5.53047 13.6082 5.76058 13.6244 5.94986 13.7353L7.00891 14.3562C7.09661 14.4077 7.17212 14.4775 7.23025 14.5609C7.4388 14.8603 7.55795 15.2019 7.67312 15.5323C7.76247 15.7886 7.89751 16.1758 8.01437 16.2433C8.12509 16.3072 8.5405 16.2291 8.7887 16.1824C9.10951 16.1219 9.44115 16.0595 9.78255 16.0756C9.89617 16.081 10.0068 16.1138 10.105 16.1713L11.4005 16.9309C11.6737 17.091 11.8061 17.414 11.724 17.7198L10.1775 23.4792C10.108 23.7377 9.89786 23.9344 9.63531 23.9865C9.5897 23.9956 9.54381 24 9.49834 24Z" fill="#FFE645"/>
<path d="M14.5017 24C14.4562 24 14.4104 23.9956 14.3647 23.9865C14.1022 23.9344 13.892 23.7377 13.8226 23.4792L12.2761 17.7198C12.194 17.414 12.3264 17.091 12.5995 16.9309L13.8951 16.1713C13.9933 16.1138 14.104 16.0809 14.2176 16.0755C14.5589 16.0596 14.8905 16.1219 15.2113 16.1823C15.4594 16.229 15.8749 16.3074 15.9857 16.2433C16.1025 16.1758 16.2376 15.7886 16.3269 15.5323C16.4421 15.2019 16.5612 14.8603 16.7698 14.5609C16.8279 14.4775 16.9034 14.4076 16.9911 14.3562L18.0502 13.7353C18.2395 13.6244 18.4696 13.6082 18.6725 13.6913C18.8755 13.7745 19.028 13.9477 19.0849 14.1596L21.0668 21.5407C21.1362 21.7993 21.0527 22.0751 20.8513 22.2516C20.65 22.4283 20.3658 22.4751 20.1184 22.3725L17.0674 21.1071L15.0595 23.7248C14.925 23.9003 14.7177 24 14.5017 24Z" fill="#FFB500"/>
<path d="M12 18.7137C11.3302 18.7137 10.8194 18.2729 10.409 17.9186C10.1989 17.7373 9.9608 17.5319 9.81609 17.4932C9.65395 17.45 9.33277 17.5106 9.04941 17.564C8.49834 17.6679 7.87373 17.7856 7.31156 17.4611C6.74208 17.1323 6.52228 16.5018 6.3457 15.9951C6.25247 15.7275 6.14677 15.4244 6.03427 15.3121C5.92158 15.1996 5.61745 15.0941 5.34909 15.0009C4.84167 14.8248 4.21013 14.6056 3.88059 14.0373C3.55467 13.4752 3.67805 12.8238 3.77719 12.3004C3.83063 12.0181 3.89123 11.6981 3.84816 11.5372C3.80967 11.3935 3.59489 11.1457 3.4223 10.9465C3.06708 10.5367 2.625 10.0267 2.625 9.35686C2.625 8.68702 3.06708 8.17697 3.4223 7.76709C3.59484 7.56802 3.80963 7.32019 3.84816 7.17642C3.89123 7.0155 3.83063 6.69553 3.77719 6.41325C3.67809 5.88984 3.55472 5.23847 3.88064 4.67639C4.21017 4.10803 4.84172 3.88884 5.34919 3.71269C5.61755 3.61955 5.92167 3.51398 6.03436 3.40153C6.14681 3.28927 6.25252 2.98608 6.3458 2.71852C6.52237 2.21184 6.74213 1.58133 7.31161 1.25255C7.87378 0.928031 8.49834 1.04578 9.04941 1.14966C9.33272 1.20309 9.65386 1.26356 9.81614 1.22039C9.96084 1.18177 10.199 0.976266 10.409 0.795C10.8194 0.440812 11.3301 0 12 0C12.6698 0 13.1806 0.440812 13.591 0.795C13.8011 0.976312 14.0392 1.18181 14.1839 1.22039C14.346 1.26356 14.6672 1.20309 14.9506 1.14966C15.5017 1.04573 16.1263 0.927984 16.6884 1.25255C17.2579 1.58138 17.4777 2.21189 17.6542 2.71856C17.7475 2.98612 17.8532 3.28931 17.9657 3.40158C18.0784 3.51403 18.3825 3.61959 18.6509 3.71273C19.1583 3.88884 19.7898 4.10803 20.1194 4.67639C20.4453 5.23852 20.322 5.88989 20.2229 6.41325C20.1694 6.69558 20.1088 7.01555 20.1519 7.17642C20.1904 7.32019 20.4052 7.56802 20.5777 7.76709C20.933 8.17692 21.375 8.68702 21.375 9.35686C21.375 10.0267 20.9329 10.5367 20.5777 10.9466C20.4051 11.1458 20.1904 11.3935 20.1519 11.5373C20.1088 11.6982 20.1694 12.0182 20.2229 12.3005C20.322 12.8238 20.4453 13.4752 20.1194 14.0373C19.7899 14.6057 19.1583 14.8249 18.6509 15.001C18.3825 15.0941 18.0784 15.1997 17.9657 15.3121C17.8532 15.4244 17.7475 15.7276 17.6542 15.9952C17.4777 16.5018 17.2579 17.1323 16.6884 17.4611C16.1263 17.7857 15.5018 17.668 14.9506 17.564C14.6672 17.5105 14.346 17.45 14.1839 17.4932C14.0392 17.5319 13.8011 17.7374 13.591 17.9186C13.1806 18.2729 12.6699 18.7137 12 18.7137Z" fill="#FF3D4A"/>
<path d="M20.1516 7.17642C20.1085 7.0155 20.1691 6.69558 20.2225 6.41325C20.3217 5.88989 20.445 5.23852 20.1191 4.67639C19.7895 4.10803 19.158 3.88884 18.6505 3.71273C18.3822 3.61959 18.078 3.51403 17.9654 3.40158C17.8529 3.28931 17.7472 2.98608 17.6539 2.71856C17.4773 2.21189 17.2575 1.58138 16.6881 1.25255C16.1259 0.927984 15.5014 1.04573 14.9503 1.14966C14.6669 1.20309 14.3457 1.26356 14.1835 1.22039C14.0388 1.18177 13.8008 0.976266 13.5907 0.795C13.1804 0.440906 12.6697 0.000140625 12 0V18.7136C12.6697 18.7135 13.1804 18.2728 13.5907 17.9186C13.8007 17.7373 14.0389 17.5319 14.1836 17.4932C14.3457 17.45 14.6669 17.5106 14.9503 17.564C15.5014 17.6679 16.126 17.7857 16.6881 17.4611C17.2576 17.1323 17.4773 16.5018 17.6539 15.9952C17.7472 15.7276 17.8529 15.4244 17.9654 15.3121C18.078 15.1996 18.3822 15.0941 18.6506 15.001C19.158 14.8249 19.7895 14.6057 20.1191 14.0373C20.445 13.4752 20.3216 12.8238 20.2225 12.3005C20.169 12.0181 20.1085 11.6982 20.1516 11.5373C20.19 11.3936 20.4048 11.1458 20.5774 10.9466C20.9326 10.5368 21.3747 10.0268 21.3747 9.35686C21.3747 8.68702 20.9326 8.17697 20.5774 7.76709C20.4048 7.56802 20.19 7.32019 20.1516 7.17642Z" fill="#C20020"/>
<path d="M12 15.204C15.236 15.204 17.8594 12.5861 17.8594 9.35686C17.8594 6.1276 15.236 3.50977 12 3.50977C8.76396 3.50977 6.14062 6.1276 6.14062 9.35686C6.14062 12.5861 8.76396 15.204 12 15.204Z" fill="#FF9300"/>
<path d="M12 3.50977V15.204C15.2308 15.2038 17.859 12.5809 17.859 9.35686C17.859 6.13284 15.2308 3.50991 12 3.50977Z" fill="#FF7403"/>
<path d="M12 15.9071C8.38144 15.9071 5.4375 12.9686 5.4375 9.35686C5.4375 5.74505 8.38144 2.80664 12 2.80664C15.6186 2.80664 18.5625 5.74505 18.5625 9.35686C18.5625 12.9686 15.6186 15.9071 12 15.9071ZM12 4.21284C9.15684 4.21284 6.84375 6.52045 6.84375 9.35681C6.84375 12.1932 9.15684 14.5008 12 14.5008C14.8432 14.5008 17.1562 12.1932 17.1562 9.35681C17.1562 6.52045 14.8432 4.21284 12 4.21284Z" fill="#FFE645"/>
<path d="M12 2.80664V4.21289C14.843 4.21303 17.1559 6.52055 17.1559 9.35686C17.1559 12.1932 14.843 14.5006 12 14.5008V15.9071C15.6184 15.9069 18.5622 12.9685 18.5622 9.35686C18.5622 5.74519 15.6184 2.80678 12 2.80664Z" fill="#FFCF2C"/>
<path d="M13.5063 12.1399C13.4271 12.1399 13.3474 12.1265 13.2708 12.0992L11.9999 11.6473L10.7291 12.0993C10.5106 12.1769 10.2678 12.1419 10.0802 12.0056C9.89262 11.8693 9.78429 11.6493 9.79067 11.4175L9.82775 10.0691L9.00523 9.00012C8.86381 8.81632 8.82214 8.57463 8.89381 8.35409C8.96548 8.13354 9.14126 7.96249 9.36368 7.89691L10.6575 7.51554L11.42 6.40292C11.5511 6.21162 11.7681 6.09729 12 6.09729C12.2319 6.09729 12.4489 6.21162 12.58 6.40292L13.3425 7.51554L14.6363 7.89691C14.8587 7.96249 15.0345 8.13354 15.1062 8.35409C15.1778 8.57463 15.1362 8.81632 14.9947 9.00012L14.1722 10.0691L14.2092 11.4175C14.2156 11.6493 14.1073 11.8693 13.9197 12.0056C13.7979 12.0941 13.6528 12.1399 13.5063 12.1399Z" fill="#FFF566"/>
<path d="M14.636 7.89679L13.3422 7.51542L12.5797 6.40279C12.4486 6.21159 12.2318 6.09726 12 6.09717V11.6473L13.2705 12.0991C13.3472 12.1264 13.4269 12.1398 13.506 12.1398C13.6526 12.1398 13.7976 12.094 13.9194 12.0055C14.107 11.8692 14.2154 11.6491 14.2089 11.4173L14.1719 10.069L14.9944 9C15.1358 8.8162 15.1775 8.57451 15.1058 8.35396C15.0342 8.13342 14.8584 7.96237 14.636 7.89679Z" fill="#FFCF2C"/>
</svg>
