<svg width="33" height="32" viewBox="0 0 33 32" fill="none" xmlns="http://www.w3.org/2000/svg">
<path d="M13.2526 18.7492C10.1983 15.6949 9.50863 12.6406 9.35305 11.4168C9.30957 11.0785 9.42601 10.7391 9.66808 10.4988L12.1398 8.02814C12.5034 7.66477 12.5679 7.09847 12.2954 6.66262L8.35994 0.551726C8.05843 0.0691049 7.43936 -0.105078 6.93042 0.149519L0.612632 3.12497C0.201078 3.32762 -0.0409922 3.76489 0.00573517 4.22124C0.33677 7.36607 1.7078 15.0968 9.30505 22.6946C16.9023 30.2924 24.6319 31.6629 27.7784 31.9939C28.2348 32.0407 28.672 31.7986 28.8747 31.387L31.8501 25.0692C32.1038 24.5614 31.9308 23.944 31.4501 23.6419L25.3393 19.7076C24.9037 19.4348 24.3374 19.4988 23.9737 19.8621L21.5031 22.3338C21.2627 22.5759 20.9234 22.6923 20.585 22.6488C19.3613 22.4932 16.307 21.8036 13.2526 18.7492V18.7492Z" fill="#D81920"/>
<path d="M25.3812 17.1034C24.7718 17.1034 24.2777 16.6094 24.2777 16C24.2726 11.4315 20.5704 7.72928 16.0019 7.72411C15.3925 7.72411 14.8984 7.23008 14.8984 6.62066C14.8984 6.01124 15.3925 5.51721 16.0019 5.51721C21.7887 5.5236 26.4783 10.2132 26.4846 16C26.4846 16.6094 25.9906 17.1034 25.3812 17.1034Z" fill="#D81920"/>
<path d="M30.8984 17.1034C30.289 17.1034 29.795 16.6094 29.795 16C29.7865 8.38581 23.6161 2.21541 16.0019 2.2069C15.3925 2.2069 14.8984 1.71287 14.8984 1.10345C14.8984 0.494031 15.3925 0 16.0019 0C24.8344 0.00973014 31.9922 7.16748 32.0019 16C32.0019 16.2927 31.8856 16.5733 31.6787 16.7803C31.4718 16.9872 31.1911 17.1034 30.8984 17.1034Z" fill="#D81920"/>
</svg>
