<svg width="325" height="323" viewBox="0 0 325 323" fill="none" xmlns="http://www.w3.org/2000/svg">
<g clip-path="url(#clip0_371_2771)">
<path d="M99.0531 28.6798C98.1448 29.1384 97.1533 29.4114 96.1372 29.4827C95.2635 29.5387 94.3885 29.3937 93.5803 29.059C92.7276 28.7378 91.9603 28.2267 91.3373 27.5647C90.6653 26.8293 90.1128 25.9941 89.6999 25.0892C89.2558 24.1967 88.9532 23.2413 88.8028 22.2569C88.6874 21.3729 88.7617 20.4746 89.0207 19.6213C89.2797 18.7679 89.7176 17.9787 90.3055 17.3058C90.9629 16.5474 91.783 15.9453 92.7055 15.5439C93.364 15.2107 94.0661 14.9705 94.7914 14.8303C95.4425 14.6969 96.1142 14.6969 96.7652 14.8303C97.4178 14.9519 98.0416 15.194 98.6045 15.5439C99.2333 15.9629 99.7805 16.4919 100.219 17.1051L97.3484 18.4655C96.9559 18.0059 96.403 17.7111 95.8008 17.6403C95.1179 17.5865 94.4337 17.7256 93.827 18.0418C93.274 18.2871 92.7892 18.6621 92.4139 19.1346C92.0967 19.5558 91.8817 20.0443 91.7859 20.5619C91.6753 21.099 91.6753 21.6528 91.7859 22.1899C91.9084 22.7597 92.0966 23.3134 92.3466 23.8403C92.6045 24.3831 92.9284 24.8925 93.3111 25.3568C93.6594 25.7643 94.0866 26.098 94.5672 26.3381C95.0216 26.5815 95.5314 26.7044 96.0475 26.695C96.6562 26.6937 97.2559 26.5485 97.797 26.2712C98.4487 26.0001 98.998 25.532 99.3671 24.9331C99.6827 24.4192 99.7871 23.8042 99.6587 23.2158L102.507 21.8777C102.722 22.6006 102.783 23.3602 102.687 24.1079C102.603 24.7845 102.382 25.4371 102.036 26.0259C101.698 26.6119 101.258 27.133 100.735 27.5647C100.215 27.9937 99.6514 28.3675 99.0531 28.6798Z" fill="white"/>
<path d="M101.814 11.5735L105.291 10.3915L111.548 15.3426L113.365 7.60376L116.774 6.42175L121.417 19.803L118.569 20.7842L115.227 11.2167L113.275 19.2677L112.58 19.4907L105.851 14.4059L109.193 23.9734L106.457 24.9547L101.814 11.5735Z" fill="white"/>
<path d="M127.336 3.74495C128.335 3.53619 129.366 3.53619 130.364 3.74495C131.249 3.88923 132.091 4.22415 132.831 4.72624C133.569 5.2373 134.188 5.89875 134.648 6.66652C135.152 7.49651 135.523 8.39939 135.747 9.34276C135.966 10.3306 136.034 11.3456 135.949 12.3535C135.877 13.2453 135.603 14.1093 135.149 14.8815C134.695 15.6537 134.071 16.3142 133.325 16.8139C132.454 17.3636 131.488 17.7491 130.476 17.9513C129.485 18.1917 128.457 18.2371 127.448 18.0851C126.569 17.946 125.733 17.6109 125.003 17.105C124.273 16.599 123.667 15.9353 123.232 15.1636C122.72 14.2919 122.357 13.3425 122.155 12.3535C121.918 11.3684 121.842 10.3518 121.931 9.34276C122.032 8.4584 122.306 7.60228 122.738 6.82263C123.193 6.05104 123.813 5.38858 124.555 4.88236C125.392 4.31513 126.34 3.92775 127.336 3.74495ZM129.893 15.342C130.501 15.2199 131.074 14.9689 131.575 14.606C131.987 14.2852 132.318 13.8727 132.54 13.4017C132.761 12.9086 132.89 12.3796 132.921 11.8406C132.923 11.2315 132.847 10.6246 132.697 10.0341C132.575 9.43695 132.371 8.85919 132.091 8.31687C131.849 7.85853 131.522 7.4499 131.127 7.11256C130.726 6.7737 130.249 6.53647 129.736 6.42119C129.137 6.29798 128.519 6.29798 127.919 6.42119C127.331 6.54744 126.774 6.79015 126.282 7.13486C125.858 7.4486 125.518 7.86249 125.295 8.33917C125.068 8.83718 124.946 9.37601 124.936 9.92261C124.901 10.5291 124.954 11.1375 125.093 11.7291C125.213 12.3198 125.417 12.8906 125.699 13.424C125.947 13.9102 126.29 14.3424 126.708 14.6952C127.109 15.0341 127.586 15.2713 128.099 15.3866C128.692 15.5166 129.308 15.5012 129.893 15.342Z" fill="white"/>
<path d="M148.893 0.64624L149.229 3.27788L144.474 3.83543L145.865 15.2095L142.837 15.5663L141.446 4.21456L136.691 4.88362L136.377 2.25199L148.893 0.64624Z" fill="white"/>
<path d="M155.123 19.9374H152.05L151.602 0.423116H154.517L154.719 2.4303C155.221 1.68793 155.909 1.0884 156.715 0.69074C158.324 -0.0712554 160.172 -0.167503 161.852 0.423116C162.617 0.743751 163.306 1.2227 163.871 1.82814C164.445 2.48065 164.887 3.23811 165.171 4.05834C165.508 5.04472 165.705 6.07318 165.755 7.11372C165.785 8.09861 165.671 9.08266 165.418 10.0353C165.181 10.8436 164.793 11.6003 164.274 12.2655C163.766 12.9314 163.104 13.4667 162.345 13.8266C161.46 14.2334 160.495 14.4391 159.519 14.4288C158.682 14.4576 157.846 14.3368 157.052 14.0719C156.26 13.8212 155.548 13.3673 154.988 12.7561L155.123 19.9374ZM158.936 11.8863C159.535 11.9151 160.134 11.8083 160.686 11.5741C161.162 11.3147 161.563 10.9385 161.852 10.4813C162.174 10.0408 162.403 9.54013 162.525 9.00939C162.665 8.42537 162.725 7.82526 162.704 7.22523C162.698 6.61367 162.607 6.00586 162.435 5.41877C162.294 4.88901 162.042 4.39496 161.695 3.96914C161.366 3.56184 160.943 3.24033 160.461 3.03245C159.905 2.7812 159.3 2.6519 158.689 2.65332C158.109 2.6537 157.538 2.79943 157.03 3.07706C156.538 3.31056 156.109 3.65409 155.773 4.08065C155.426 4.52284 155.174 5.03151 155.033 5.57488C154.877 6.13338 154.809 6.71276 154.831 7.29214C154.833 7.90572 154.932 8.51523 155.123 9.0986C155.272 9.62308 155.532 10.1098 155.886 10.5259C156.238 10.9275 156.674 11.2473 157.164 11.4626C157.726 11.7487 158.35 11.8942 158.981 11.8863H158.936Z" fill="white"/>
<path d="M171.186 8.49597C171.184 8.99357 171.252 9.48903 171.388 9.9679C171.524 10.4031 171.737 10.8108 172.016 11.1722C172.317 11.5328 172.682 11.8352 173.093 12.0643C173.585 12.2994 174.118 12.4359 174.663 12.4657C175.276 12.537 175.897 12.4684 176.48 12.265C177.041 12.085 177.508 11.6924 177.781 11.1722L180.921 11.4175C180.489 12.6886 179.57 13.7387 178.364 14.3391C177.784 14.6251 177.164 14.8207 176.525 14.9189C175.823 14.9868 175.117 14.9868 174.416 14.9189C173.403 14.864 172.411 14.6061 171.5 14.1607C170.704 13.7901 170.011 13.2311 169.482 12.5326C168.947 11.825 168.572 11.0111 168.383 10.1463C168.169 9.15016 168.108 8.12747 168.203 7.11324C168.275 6.1229 168.51 5.151 168.899 4.23628C169.25 3.44124 169.762 2.72629 170.402 2.13558C171.043 1.54487 171.798 1.09093 172.622 0.801774C173.542 0.47772 174.52 0.348577 175.493 0.42264C176.481 0.473029 177.446 0.73955 178.319 1.20321C179.069 1.59676 179.721 2.15319 180.225 2.83126C180.722 3.49765 181.081 4.25581 181.28 5.06146C181.477 5.96937 181.537 6.90134 181.459 7.82691C181.423 8.28313 181.363 8.7372 181.28 9.18733L171.186 8.49597ZM178.566 6.75641C178.607 6.29028 178.553 5.82065 178.406 5.37596C178.26 4.93127 178.024 4.52078 177.713 4.16938C177.07 3.5388 176.216 3.16569 175.313 3.12118C174.8 3.0775 174.282 3.13047 173.788 3.2773C173.367 3.4035 172.977 3.61625 172.644 3.90175C172.322 4.19878 172.049 4.54511 171.837 4.92765C171.628 5.32816 171.477 5.75616 171.388 6.19886L178.566 6.75641Z" fill="white"/>
<path d="M196.488 3.65667L196.039 6.266L191.307 5.46313L189.355 16.7479L186.35 16.2127L188.323 4.88328L183.591 4.0804L184.062 1.47107L196.488 3.65667Z" fill="white"/>
<path d="M199.065 4.26111L202.026 5.04168L200.792 9.6582L203.865 10.4611C204.592 10.6522 205.298 10.9136 205.974 11.2416C206.558 11.508 207.072 11.9049 207.476 12.4013C207.858 12.8837 208.12 13.4493 208.239 14.0517C208.363 14.797 208.31 15.561 208.082 16.2819C207.9 17.1063 207.515 17.8728 206.961 18.5121C206.482 19.0098 205.889 19.3848 205.233 19.6049C204.571 19.8319 203.869 19.923 203.17 19.8725C202.413 19.8321 201.662 19.7201 200.927 19.538L195.499 17.8876L199.065 4.26111ZM201.308 16.8394C201.708 16.9353 202.112 17.0097 202.519 17.0625C202.884 17.12 203.254 17.12 203.619 17.0625C203.946 16.9965 204.248 16.8422 204.493 16.6164C204.773 16.3388 204.974 15.9926 205.076 15.6128C205.213 15.2229 205.213 14.7984 205.076 14.4085C204.941 14.0906 204.734 13.8081 204.471 13.5833C204.175 13.3788 203.85 13.2209 203.506 13.115L202.475 12.8028L200.232 12.1783L199.133 16.1927L201.308 16.8394Z" fill="white"/>
<path d="M221.271 11.0624L226.901 13.4487C227.484 13.6921 228.054 13.9676 228.606 14.2739C229.152 14.5595 229.639 14.9454 230.041 15.4113C230.421 15.8358 230.683 16.3505 230.804 16.9055C230.907 17.574 230.806 18.2578 230.512 18.8681C230.279 19.4259 229.909 19.9166 229.436 20.2954C228.916 20.6878 228.292 20.9204 227.641 20.9645C228.272 21.4192 228.718 22.0839 228.898 22.8378C229.047 23.5909 228.953 24.3715 228.628 25.068C228.38 25.6971 227.97 26.2506 227.44 26.6738C226.958 27.0373 226.397 27.2819 225.802 27.3874C225.179 27.4985 224.541 27.4985 223.918 27.3874C223.225 27.2511 222.548 27.0418 221.9 26.763L215.687 23.9975L221.271 11.0624ZM222.371 24.0868C222.699 24.2325 223.036 24.3591 223.38 24.4659C223.689 24.5743 224.017 24.6199 224.344 24.5997C224.636 24.5971 224.921 24.5203 225.174 24.3767C225.463 24.2275 225.68 23.971 225.78 23.663C225.921 23.4392 225.996 23.1802 225.996 22.9159C225.996 22.6516 225.921 22.3926 225.78 22.1688C225.44 21.7542 225 21.432 224.501 21.2321L220.913 19.6933L219.544 22.8601L222.371 24.0868ZM223.088 14.6084L221.81 17.5746L223.514 18.3105L224.681 18.8012C225.053 18.9589 225.446 19.064 225.847 19.1134C226.182 19.1623 226.524 19.1159 226.834 18.9796C226.999 18.9073 227.147 18.803 227.27 18.6727C227.393 18.5425 227.489 18.389 227.552 18.2213C227.646 17.9238 227.646 17.6045 227.552 17.3069C227.461 17.0603 227.324 16.8332 227.148 16.6379C226.952 16.4236 226.716 16.2494 226.453 16.1249L225.645 15.7681L223.088 14.6084Z" fill="white"/>
<path d="M231.564 31.2891L229.141 29.8841L236.072 17.5957L238.763 19.0899L233.986 27.5424L244.976 22.7252L247.399 24.0633L240.356 36.2402L237.687 34.7459L242.352 26.4719L231.564 31.2891Z" fill="white"/>
<path d="M249.327 31.2656L250.875 29.303C251.368 28.6562 251.862 27.9649 252.377 27.2512L261.349 33.5627L254.62 42.9295L256.123 44L252.22 49.4863L249.798 47.7691L252.198 44.4238L244.325 38.826L241.903 42.1713L239.48 40.454L243.406 34.99C243.794 35.2697 244.276 35.3896 244.751 35.3245C245.198 35.2699 245.623 35.1009 245.985 34.8339C246.33 34.6215 246.646 34.3668 246.927 34.0756C247.286 33.7411 247.622 33.3843 247.959 33.0274L248.834 32.0015C249.013 31.7661 249.177 31.5204 249.327 31.2656ZM257.222 33.9418L253.095 31.0203L251.817 32.6706L250.493 34.4102L249.776 35.2353C249.517 35.5487 249.24 35.8466 248.946 36.1274C248.654 36.4173 248.34 36.6627 248.026 36.9303C247.693 37.1737 247.332 37.3759 246.95 37.5324L252.041 41.1677L257.222 33.9418Z" fill="white"/>
<path d="M261.785 44.3783C261.472 44.7653 261.23 45.2029 261.067 45.6718C260.906 46.0992 260.829 46.5536 260.842 47.0099C260.85 47.4803 260.957 47.9438 261.156 48.3703C261.412 48.8517 261.754 49.2826 262.166 49.6415C262.621 50.0498 263.155 50.361 263.736 50.5559C264.297 50.7438 264.909 50.7037 265.441 50.4444L267.683 52.5185C267.124 52.923 266.48 53.1974 265.799 53.3214C265.17 53.444 264.522 53.444 263.893 53.3214C263.249 53.2034 262.629 52.9851 262.054 52.6746C261.447 52.3291 260.877 51.9258 260.349 51.4703C259.589 50.8421 258.943 50.0876 258.443 49.2401C258.048 48.4579 257.84 47.5953 257.837 46.72C257.837 45.8422 258.029 44.9749 258.398 44.1775C258.825 43.2566 259.392 42.4066 260.08 41.6574C260.723 40.9123 261.48 40.2726 262.323 39.7617C263.1 39.3119 263.963 39.0307 264.857 38.9366C265.725 38.8295 266.605 38.9132 267.437 39.1819C268.357 39.492 269.204 39.9852 269.926 40.6315C270.673 41.244 271.284 42.0033 271.721 42.8617C272.076 43.6307 272.252 44.4691 272.237 45.3149C272.233 46.1612 272.049 46.9971 271.698 47.7682C271.312 48.5872 270.797 49.34 270.173 49.9984C269.875 50.3471 269.552 50.675 269.209 50.9797L261.785 44.3783ZM268.738 47.389C269.054 47.0439 269.296 46.6387 269.45 46.1979C269.604 45.7571 269.667 45.2899 269.635 44.8243C269.5 44.1365 269.19 43.4946 268.734 42.9597C268.279 42.4249 267.693 42.0149 267.033 41.7689C266.618 41.6134 266.174 41.5524 265.732 41.5905C265.298 41.6175 264.872 41.7233 264.476 41.9027C264.067 42.1004 263.69 42.3558 263.355 42.661L268.738 47.389Z" fill="white"/>
<path d="M281.99 52.184C282.701 52.9149 283.257 53.7792 283.628 54.7264C283.939 55.5674 284.069 56.4639 284.009 57.358C283.935 58.252 283.668 59.1194 283.224 59.9005C282.723 60.7415 282.087 61.4949 281.34 62.1307C280.599 62.8248 279.75 63.397 278.828 63.8256C278.018 64.193 277.138 64.3832 276.248 64.3832C275.353 64.3827 274.471 64.1766 273.669 63.781C271.837 62.8064 270.402 61.2299 269.609 59.3206C269.286 58.4968 269.156 57.6104 269.23 56.7291C269.303 55.8477 269.579 54.9949 270.035 54.2357C270.526 53.3551 271.163 52.5633 271.92 51.894C272.663 51.2022 273.51 50.6303 274.432 50.1991C275.246 49.8215 276.135 49.631 277.033 49.6415C277.918 49.6496 278.79 49.8474 279.59 50.2214C280.515 50.709 281.331 51.3764 281.99 52.184ZM273.198 60.235C273.596 60.7013 274.105 61.0616 274.678 61.2832C275.168 61.4833 275.698 61.5673 276.226 61.5285C276.764 61.455 277.286 61.2969 277.774 61.0602C278.306 60.7691 278.803 60.4173 279.254 60.012C279.71 59.6035 280.104 59.13 280.42 58.6069C280.721 58.1541 280.926 57.646 281.026 57.1127C281.159 56.6083 281.159 56.0783 281.026 55.5739C280.822 54.9968 280.493 54.4714 280.061 54.035C279.666 53.5848 279.176 53.2269 278.626 52.9868C278.136 52.7867 277.606 52.7027 277.078 52.7415C276.536 52.794 276.01 52.9532 275.531 53.2099C274.986 53.501 274.48 53.8608 274.028 54.2803C273.578 54.6868 273.186 55.1519 272.862 55.6631C272.568 56.109 272.37 56.6099 272.278 57.135C272.145 57.647 272.145 58.1842 272.278 58.6961C272.474 59.2672 272.787 59.7914 273.198 60.235Z" fill="white"/>
<path d="M295.718 97.8814C295.249 96.9881 294.967 96.0094 294.889 95.0044C294.825 94.1374 294.963 93.2674 295.292 92.462C295.627 91.6201 296.139 90.8594 296.795 90.2318C297.539 89.5636 298.378 89.0075 299.285 88.5814C300.179 88.1357 301.142 87.8417 302.133 87.7117C303.019 87.5761 303.925 87.6357 304.785 87.8862C305.645 88.1367 306.44 88.572 307.113 89.1613C307.878 89.8176 308.49 90.632 308.907 91.5476C309.236 92.2051 309.477 92.9023 309.625 93.6217C309.759 94.2691 309.759 94.9369 309.625 95.5843C309.499 96.232 309.255 96.8515 308.907 97.4131C308.501 98.0429 307.975 98.5883 307.359 99.0188L305.991 96.3202C306.447 95.9277 306.735 95.3776 306.799 94.7814C306.863 94.1044 306.731 93.4231 306.417 92.8188C306.167 92.2647 305.782 91.7817 305.296 91.4138C304.88 91.0858 304.385 90.8707 303.86 90.7894C303.328 90.6787 302.778 90.6787 302.245 90.7894C301.661 90.9051 301.095 91.1002 300.563 91.3692C300.02 91.6174 299.514 91.9402 299.06 92.3282C298.65 92.6707 298.307 93.0867 298.051 93.5548C297.827 94.0211 297.712 94.532 297.715 95.049C297.714 95.6545 297.86 96.2512 298.141 96.7886C298.435 97.4299 298.91 97.9722 299.509 98.3497C299.764 98.507 300.049 98.6117 300.345 98.6577C300.642 98.7037 300.945 98.69 301.236 98.6174L302.604 101.45C301.878 101.667 301.115 101.735 300.361 101.65C299.682 101.564 299.026 101.344 298.432 101.004C297.843 100.668 297.319 100.23 296.885 99.7102C296.423 99.1499 296.031 98.5358 295.718 97.8814Z" fill="white"/>
<path d="M312.898 100.783L314.109 104.239L309.152 110.484L316.935 112.246L318.124 115.636L304.667 120.297L303.68 117.487L313.279 114.141L305.182 112.224L304.936 111.532L310.027 104.842L300.427 108.187L299.44 105.377L312.898 100.783Z" fill="white"/>
<path d="M320.908 125.985C321.15 126.97 321.196 127.993 321.042 128.995C320.887 129.872 320.551 130.707 320.055 131.449C319.542 132.188 318.877 132.812 318.104 133.277C316.337 134.289 314.305 134.748 312.272 134.593C311.38 134.507 310.516 134.233 309.738 133.79C308.957 133.353 308.295 132.733 307.809 131.984C307.245 131.121 306.849 130.16 306.642 129.151C306.4 128.166 306.354 127.143 306.508 126.141C306.642 125.276 306.971 124.452 307.472 123.732C307.981 123 308.648 122.391 309.424 121.948C310.3 121.434 311.254 121.065 312.25 120.855C313.235 120.631 314.248 120.555 315.255 120.632C316.147 120.712 317.011 120.985 317.786 121.432C318.561 121.879 319.228 122.489 319.741 123.219C320.311 124.055 320.707 124.995 320.908 125.985ZM309.244 128.572C309.362 129.177 309.615 129.749 309.984 130.244C310.321 130.649 310.742 130.977 311.218 131.203C311.714 131.418 312.247 131.539 312.788 131.56C313.399 131.586 314.011 131.526 314.605 131.382C315.198 131.258 315.771 131.056 316.309 130.78C316.798 130.533 317.233 130.192 317.588 129.776C317.924 129.375 318.162 128.901 318.283 128.393C318.415 127.798 318.415 127.182 318.283 126.587C318.178 125.988 317.932 125.423 317.566 124.936C317.243 124.527 316.828 124.198 316.354 123.977C315.853 123.752 315.312 123.63 314.762 123.621C314.151 123.594 313.539 123.654 312.945 123.799C312.352 123.922 311.779 124.125 311.24 124.401C310.73 124.605 310.271 124.917 309.895 125.316C309.55 125.711 309.311 126.187 309.199 126.698C309.053 127.316 309.069 127.961 309.244 128.572Z" fill="white"/>
<path d="M324.109 147.46L321.485 147.795L320.879 143.156L309.44 144.583L309.059 141.573L320.498 140.145L319.893 135.417L322.539 135.105L324.109 147.46Z" fill="white"/>
<path d="M304.732 153.772V150.716L324.426 150.136V153.036L322.407 153.259C323.158 153.744 323.762 154.422 324.156 155.221C324.558 156.027 324.78 156.91 324.807 157.808C324.852 158.7 324.699 159.591 324.358 160.418C324.046 161.191 323.563 161.885 322.945 162.447C322.294 163.026 321.531 163.466 320.702 163.741C318.766 164.335 316.704 164.397 314.736 163.919C313.927 163.686 313.167 163.308 312.493 162.804C311.822 162.294 311.277 161.638 310.901 160.886C310.491 160.006 310.285 159.046 310.295 158.076C310.27 157.245 310.383 156.416 310.631 155.623C310.889 154.831 311.344 154.117 311.955 153.549L304.732 153.772ZM312.852 157.518C312.856 158.107 312.994 158.686 313.256 159.213C313.5 159.677 313.854 160.075 314.287 160.373C314.72 160.697 315.217 160.925 315.745 161.042C316.342 161.172 316.952 161.232 317.562 161.221C318.178 161.207 318.79 161.11 319.379 160.931C319.905 160.791 320.395 160.54 320.814 160.195C321.219 159.863 321.541 159.444 321.756 158.968C321.972 158.406 322.071 157.807 322.048 157.206C322.034 156.624 321.888 156.052 321.622 155.534C321.373 155.054 321.02 154.636 320.59 154.307C320.151 153.966 319.648 153.716 319.11 153.571C318.54 153.416 317.95 153.349 317.36 153.37C316.744 153.384 316.133 153.481 315.543 153.66C315.018 153.825 314.531 154.09 314.108 154.441C313.711 154.797 313.39 155.229 313.166 155.712C312.927 156.283 312.82 156.901 312.852 157.518Z" fill="white"/>
<path d="M316.307 169.584C315.807 169.582 315.308 169.65 314.827 169.785C314.388 169.929 313.978 170.147 313.616 170.432C313.243 170.715 312.944 171.082 312.741 171.502C312.497 171.99 312.352 172.52 312.315 173.063C312.264 173.675 312.34 174.289 312.539 174.87C312.73 175.424 313.133 175.88 313.66 176.141L313.414 179.263C312.753 179.069 312.147 178.725 311.642 178.26C311.154 177.846 310.757 177.338 310.475 176.766C310.18 176.183 309.976 175.558 309.87 174.915C309.802 174.225 309.802 173.53 309.87 172.84C309.929 171.829 310.18 170.838 310.61 169.919C310.983 169.127 311.545 168.438 312.247 167.912C312.945 167.372 313.759 166.998 314.625 166.819C316.602 166.388 318.663 166.551 320.546 167.287C321.391 167.623 322.155 168.132 322.789 168.781C323.399 169.42 323.865 170.18 324.157 171.012C324.476 171.928 324.591 172.902 324.494 173.866C324.439 174.846 324.179 175.803 323.731 176.676C323.329 177.418 322.771 178.065 322.094 178.572C321.424 179.066 320.661 179.422 319.851 179.62C318.939 179.824 318.002 179.892 317.07 179.821C316.61 179.796 316.152 179.736 315.701 179.643L316.307 169.584ZM318.079 176.899C318.546 176.945 319.018 176.895 319.465 176.753C319.913 176.611 320.326 176.38 320.681 176.074C321.32 175.429 321.696 174.571 321.735 173.666C321.768 173.155 321.715 172.642 321.578 172.149C321.435 171.733 321.214 171.347 320.928 171.012C320.634 170.691 320.285 170.427 319.896 170.231C319.497 170.013 319.065 169.863 318.617 169.785L318.079 176.899Z" fill="white"/>
<path d="M321.266 194.809L318.641 194.452L319.449 189.746L308.077 187.761L308.593 184.773L319.942 186.691L320.75 181.985L323.374 182.431L321.266 194.809Z" fill="white"/>
<path d="M320.679 197.372L319.894 200.316L315.251 199.111L314.377 202.167C314.202 202.892 313.946 203.595 313.614 204.263C313.346 204.844 312.947 205.355 312.448 205.757C311.982 206.155 311.416 206.417 310.81 206.516C310.063 206.655 309.293 206.609 308.567 206.382C307.732 206.22 306.956 205.834 306.324 205.267C305.804 204.813 305.416 204.227 305.203 203.572C304.979 202.912 304.88 202.216 304.911 201.52C304.952 200.768 305.064 200.021 305.248 199.29L306.728 193.714L320.679 197.372ZM308.029 199.602C307.94 200 307.873 200.402 307.827 200.806C307.758 201.167 307.758 201.538 307.827 201.899C307.893 202.225 308.049 202.526 308.276 202.769C308.555 203.047 308.903 203.247 309.285 203.349C309.675 203.496 310.106 203.496 310.496 203.349C310.806 203.219 311.071 203.002 311.259 202.724C311.467 202.429 311.634 202.106 311.752 201.765C311.864 201.409 311.954 201.052 312.044 200.762L312.672 198.398L308.635 197.327L308.029 199.602Z" fill="white"/>
<path d="M313.93 219.473L311.552 225.026C311.306 225.584 311.014 226.164 310.7 226.721C310.42 227.263 310.04 227.748 309.579 228.149C309.158 228.535 308.638 228.797 308.076 228.907C307.406 229.018 306.718 228.925 306.102 228.639C305.534 228.408 305.033 228.04 304.644 227.569C304.246 227.054 304.012 226.433 303.971 225.785C303.528 226.42 302.865 226.873 302.11 227.056C301.352 227.204 300.567 227.111 299.867 226.788C299.234 226.541 298.677 226.133 298.252 225.606C297.876 225.131 297.622 224.573 297.511 223.978C297.389 223.36 297.389 222.723 297.511 222.105C297.63 221.414 297.834 220.74 298.117 220.098L300.921 213.942L313.93 219.473ZM300.809 220.633C300.669 220.96 300.549 221.295 300.45 221.637C300.339 221.944 300.294 222.27 300.315 222.596C300.321 222.885 300.398 223.168 300.539 223.421C300.708 223.693 300.959 223.904 301.257 224.023C301.482 224.163 301.743 224.238 302.009 224.238C302.274 224.238 302.535 224.163 302.76 224.023C303.177 223.685 303.501 223.248 303.702 222.752L305.227 219.183L302.042 217.823L300.809 220.633ZM310.364 221.302L307.358 220.031L306.64 221.748C306.461 222.105 306.304 222.506 306.147 222.908C305.986 223.277 305.88 223.668 305.833 224.067C305.784 224.401 305.83 224.741 305.967 225.049C306.046 225.21 306.156 225.354 306.291 225.472C306.425 225.591 306.582 225.682 306.752 225.74C307.04 225.857 307.362 225.857 307.65 225.74C307.909 225.672 308.148 225.542 308.345 225.361C308.552 225.155 308.719 224.913 308.838 224.647L309.22 223.867L310.364 221.302Z" fill="white"/>
<path d="M293.628 229.734L295.018 227.259L307.422 234.128L305.919 236.782L297.418 232.076L302.42 243.049L301.074 245.457L288.671 238.611L290.174 235.934L298.517 240.551C298.517 240.551 296.88 236.826 293.628 229.734Z" fill="white"/>
<path d="M293.72 247.507L295.716 249.046L297.78 250.518L291.477 259.439L282.012 252.748L280.935 254.265L275.417 250.384L277.145 247.953L280.531 250.34L286.139 242.467L282.752 240.081L284.479 237.65L289.997 241.53C289.847 241.721 289.738 241.94 289.677 242.174C289.615 242.408 289.602 242.652 289.638 242.891C289.699 243.327 289.869 243.741 290.131 244.095C290.361 244.432 290.624 244.746 290.916 245.032C291.253 245.389 291.612 245.723 291.993 246.058C292.374 246.392 292.688 246.682 293.002 246.927L293.72 247.507ZM291.051 255.38L293.989 251.254L292.307 249.983L290.58 248.667C290.333 248.444 290.042 248.221 289.728 247.976C289.414 247.73 289.122 247.44 288.853 247.15C288.566 246.862 288.296 246.556 288.045 246.236C287.793 245.906 287.583 245.546 287.417 245.166L283.784 250.206L291.051 255.38Z" fill="white"/>
<path d="M280.599 259.862C280.204 259.561 279.765 259.32 279.298 259.148C278.86 258.989 278.396 258.914 277.93 258.925C277.461 258.93 277 259.045 276.584 259.26C276.089 259.496 275.652 259.839 275.306 260.263C274.891 260.713 274.578 261.245 274.386 261.825C274.162 262.368 274.162 262.977 274.386 263.52L272.323 265.75C271.918 265.189 271.636 264.551 271.493 263.876C271.381 263.249 271.381 262.608 271.493 261.981C271.615 261.342 271.834 260.725 272.143 260.152C272.475 259.539 272.882 258.97 273.354 258.457C273.974 257.689 274.736 257.046 275.597 256.561C276.378 256.151 277.248 255.937 278.132 255.937C279.016 255.926 279.891 256.117 280.689 256.494C281.619 256.903 282.475 257.46 283.223 258.145C283.989 258.774 284.642 259.528 285.152 260.375C285.591 261.147 285.881 261.994 286.005 262.873C286.093 263.744 286.002 264.625 285.735 265.46C285.432 266.374 284.943 267.216 284.3 267.935C283.685 268.679 282.921 269.286 282.057 269.719C281.283 270.072 280.441 270.255 279.59 270.255C278.738 270.255 277.897 270.072 277.123 269.719C276.305 269.334 275.549 268.831 274.88 268.225C274.534 267.923 274.205 267.602 273.893 267.266L280.599 259.862ZM277.571 266.776C277.909 267.09 278.31 267.331 278.748 267.481C279.185 267.631 279.65 267.689 280.111 267.649C280.572 267.609 281.02 267.472 281.425 267.249C281.83 267.026 282.183 266.72 282.461 266.352C282.802 265.974 283.069 265.535 283.246 265.058C283.392 264.643 283.453 264.204 283.425 263.765C283.379 263.334 283.266 262.912 283.089 262.516C282.89 262.11 282.633 261.734 282.326 261.401L277.571 266.776Z" fill="white"/>
<path d="M272.819 279.978C272.09 280.692 271.219 281.246 270.262 281.606C269.426 281.933 268.527 282.07 267.631 282.008C266.735 281.947 265.864 281.687 265.081 281.25C264.235 280.752 263.477 280.119 262.838 279.376C262.126 278.645 261.543 277.801 261.111 276.878C260.735 276.075 260.536 275.2 260.528 274.314C260.531 273.424 260.738 272.547 261.133 271.749C261.597 270.831 262.229 270.007 262.995 269.318C263.736 268.619 264.604 268.067 265.552 267.69C266.379 267.369 267.269 267.239 268.154 267.311C269.044 267.392 269.908 267.658 270.688 268.091C271.526 268.601 272.282 269.233 272.931 269.965C273.621 270.7 274.196 271.535 274.636 272.44C275.01 273.253 275.209 274.134 275.219 275.027C275.211 275.914 275.012 276.788 274.636 277.592C274.2 278.502 273.581 279.314 272.819 279.978ZM264.7 271.258C264.234 271.667 263.873 272.179 263.646 272.753C263.45 273.233 263.373 273.753 263.421 274.269C263.474 274.808 263.634 275.331 263.892 275.808C264.18 276.341 264.534 276.836 264.946 277.28C265.368 277.729 265.842 278.126 266.36 278.462C266.821 278.744 267.33 278.94 267.862 279.042C268.379 279.138 268.912 279.099 269.41 278.93C269.99 278.736 270.518 278.416 270.958 277.994C271.407 277.589 271.766 277.095 272.012 276.544C272.217 276.058 272.294 275.529 272.236 275.005C272.183 274.466 272.023 273.943 271.765 273.466C271.477 272.928 271.115 272.432 270.688 271.994C270.286 271.541 269.817 271.15 269.298 270.835C268.842 270.536 268.331 270.331 267.795 270.232C267.286 270.11 266.756 270.11 266.247 270.232C265.657 270.448 265.127 270.8 264.7 271.258Z" fill="white"/>
<path d="M226.902 293.807C227.808 293.34 228.8 293.059 229.818 292.982C230.688 292.914 231.562 293.043 232.375 293.361C233.223 293.691 233.988 294.201 234.618 294.855C235.297 295.586 235.864 296.413 236.3 297.309C236.744 298.201 237.047 299.157 237.197 300.141C237.32 301.029 237.259 301.932 237.018 302.795C236.751 303.618 236.316 304.378 235.739 305.025C235.082 305.78 234.272 306.388 233.362 306.809C232.694 307.126 231.995 307.373 231.276 307.545C229.963 307.814 228.596 307.566 227.463 306.854C226.817 306.457 226.26 305.933 225.825 305.315L228.674 303.932C229.074 304.39 229.636 304.678 230.244 304.735C230.92 304.791 231.597 304.652 232.195 304.334C232.751 304.093 233.237 303.717 233.608 303.241C233.935 302.817 234.151 302.319 234.236 301.791C234.325 301.26 234.325 300.717 234.236 300.186C234.102 299.606 233.899 299.045 233.631 298.513C233.376 297.975 233.052 297.473 232.666 297.019C232.318 296.611 231.891 296.278 231.41 296.037C230.942 295.812 230.428 295.697 229.907 295.703C229.306 295.702 228.713 295.848 228.18 296.127C227.531 296.412 226.984 296.887 226.61 297.487C226.452 297.741 226.347 298.024 226.301 298.319C226.254 298.614 226.268 298.915 226.341 299.204L223.515 300.587C223.291 299.866 223.215 299.108 223.291 298.357C223.381 297.685 223.593 297.035 223.919 296.439C224.265 295.852 224.713 295.331 225.242 294.9C225.753 294.476 226.31 294.109 226.902 293.807Z" fill="white"/>
<path d="M224.164 310.891L220.687 312.118L214.407 307.211L212.658 314.883L209.248 316.088L204.516 302.706L207.342 301.703L210.751 311.226L212.658 303.175L213.33 302.929L220.059 307.97L216.65 298.424L219.499 297.421L224.164 310.891Z" fill="white"/>
<path d="M198.733 318.987C197.742 319.228 196.713 319.274 195.705 319.121C194.816 318.985 193.969 318.654 193.224 318.153C192.479 317.651 191.856 316.992 191.399 316.222C190.874 315.36 190.495 314.418 190.277 313.434C190.04 312.449 189.965 311.432 190.053 310.423C190.136 309.538 190.403 308.68 190.838 307.903C191.278 307.127 191.901 306.468 192.655 305.985C193.509 305.415 194.47 305.021 195.481 304.826C196.469 304.567 197.499 304.514 198.509 304.669C199.387 304.796 200.225 305.124 200.954 305.628C201.689 306.135 202.302 306.798 202.748 307.569C203.762 309.318 204.223 311.331 204.071 313.345C204.013 314.242 203.744 315.112 203.286 315.887C202.836 316.649 202.223 317.304 201.492 317.805C200.663 318.383 199.724 318.785 198.733 318.987ZM196.086 307.39C195.476 307.515 194.901 307.774 194.404 308.149C193.992 308.478 193.662 308.898 193.44 309.375C193.234 309.872 193.113 310.4 193.081 310.936C193.073 311.514 193.133 312.09 193.26 312.654C193.401 313.241 193.612 313.81 193.888 314.349C194.151 314.825 194.492 315.255 194.898 315.62C195.305 315.956 195.791 316.186 196.311 316.289C196.909 316.421 197.529 316.421 198.127 316.289C198.721 316.167 199.281 315.916 199.765 315.553C200.182 315.238 200.514 314.824 200.729 314.349C200.956 313.851 201.078 313.312 201.088 312.765C201.124 311.549 200.846 310.343 200.281 309.264C200.032 308.777 199.689 308.345 199.271 307.992C198.866 307.665 198.39 307.436 197.881 307.323C197.285 307.212 196.672 307.235 196.086 307.39Z" fill="white"/>
<path d="M177.217 322.264L176.858 319.633L181.613 319.008L180.133 307.656L183.161 307.277L184.641 318.629L189.397 318.027L189.733 320.636L177.217 322.264Z" fill="white"/>
<path d="M170.829 303.016L173.902 302.905L174.553 322.486L171.637 322.597L171.413 320.59C170.918 321.331 170.238 321.931 169.439 322.33C168.633 322.733 167.751 322.961 166.85 322.999C165.949 323.038 165.05 322.886 164.213 322.553C163.444 322.248 162.754 321.776 162.194 321.17C161.604 320.525 161.153 319.766 160.871 318.94C160.548 317.975 160.374 316.968 160.355 315.951C160.307 314.96 160.413 313.967 160.669 313.008C160.89 312.198 161.271 311.44 161.79 310.777C162.29 310.106 162.943 309.563 163.697 309.194C164.584 308.79 165.547 308.577 166.523 308.569C167.358 308.544 168.192 308.657 168.99 308.904C169.786 309.16 170.504 309.612 171.076 310.22L170.829 303.016ZM167.084 311.09C166.489 311.092 165.904 311.237 165.379 311.513C164.913 311.748 164.513 312.092 164.213 312.517C163.908 312.964 163.688 313.463 163.562 313.989C163.42 314.58 163.36 315.188 163.383 315.795C163.407 316.4 163.505 316.999 163.674 317.58C163.832 318.107 164.091 318.599 164.437 319.029C164.767 319.43 165.19 319.744 165.671 319.944C166.231 320.173 166.837 320.272 167.442 320.233C168.028 320.219 168.603 320.075 169.125 319.81C169.612 319.553 170.039 319.195 170.375 318.76C170.712 318.325 170.951 317.824 171.076 317.29C171.234 316.724 171.302 316.137 171.278 315.55C171.255 314.944 171.149 314.344 170.964 313.766C170.807 313.24 170.54 312.753 170.179 312.339C169.821 311.943 169.386 311.625 168.9 311.402C168.319 311.161 167.69 311.054 167.061 311.09H167.084Z" fill="white"/>
<path d="M154.879 314.591C154.887 314.092 154.811 313.594 154.654 313.12C154.52 312.679 154.299 312.27 154.004 311.915C153.719 311.545 153.35 311.247 152.927 311.045C152.441 310.792 151.905 310.648 151.357 310.622C150.743 310.58 150.126 310.656 149.54 310.845C148.983 311.035 148.524 311.436 148.262 311.96L145.122 311.759C145.321 311.097 145.666 310.488 146.131 309.975C146.553 309.49 147.062 309.089 147.634 308.793C148.217 308.497 148.847 308.301 149.495 308.213C150.188 308.132 150.888 308.132 151.581 308.213C152.597 308.267 153.593 308.509 154.52 308.927C155.316 309.297 156.009 309.856 156.538 310.555C157.079 311.253 157.462 312.06 157.66 312.919C157.868 313.908 157.936 314.922 157.862 315.93C157.811 316.928 157.583 317.909 157.189 318.829C156.856 319.666 156.352 320.425 155.708 321.059C155.066 321.665 154.302 322.129 153.466 322.419C152.55 322.729 151.58 322.843 150.617 322.754C149.624 322.721 148.652 322.469 147.768 322.018C147.022 321.618 146.372 321.063 145.862 320.39C145.35 319.73 144.983 318.97 144.785 318.16C144.58 317.253 144.512 316.321 144.583 315.394C144.609 314.944 144.669 314.497 144.763 314.056L154.879 314.591ZM147.522 316.376C147.48 316.842 147.534 317.311 147.681 317.756C147.827 318.201 148.063 318.611 148.374 318.963C149.025 319.592 149.889 319.958 150.796 319.989C151.31 320.031 151.827 319.978 152.322 319.832C153.157 319.543 153.849 318.944 154.251 318.16C154.453 317.751 154.596 317.315 154.677 316.866L147.522 316.376Z" fill="white"/>
<path d="M129.578 319.633L130.026 317.024L134.736 317.782L136.621 306.497L139.626 306.988L137.742 318.273L142.475 319.053L142.048 321.574L129.578 319.633Z" fill="white"/>
<path d="M126.975 319.05L124.015 318.27L125.226 313.676L122.131 312.873C121.402 312.699 120.695 312.445 120.022 312.115C119.438 311.848 118.918 311.461 118.497 310.977C118.115 310.495 117.854 309.929 117.735 309.327C117.614 308.583 117.66 307.821 117.869 307.097C118.044 306.274 118.421 305.508 118.968 304.866C119.444 304.36 120.037 303.977 120.695 303.751C121.351 303.529 122.044 303.431 122.736 303.461C123.495 303.478 124.249 303.591 124.979 303.796L130.609 305.246L126.975 319.05ZM124.62 306.494C124.223 306.388 123.818 306.313 123.409 306.271C123.045 306.214 122.674 306.214 122.31 306.271C121.981 306.346 121.679 306.508 121.435 306.74C121.155 307.017 120.954 307.364 120.852 307.743C120.714 308.133 120.714 308.558 120.852 308.948C120.99 309.251 121.207 309.513 121.48 309.706C121.781 309.915 122.115 310.073 122.467 310.174C122.826 310.286 123.162 310.397 123.476 310.464L125.854 311.089L126.908 307.074L124.62 306.494Z" fill="white"/>
<path d="M104.707 312.428L99.055 310.087C98.4718 309.841 97.8886 309.551 97.3279 309.262C96.7874 308.976 96.3016 308.599 95.8924 308.146C95.5016 307.718 95.2309 307.195 95.1074 306.63C95.009 305.964 95.1023 305.283 95.3765 304.667C95.6153 304.113 95.9846 303.623 96.4531 303.24C96.9708 302.844 97.5957 302.611 98.2475 302.571C97.6037 302.124 97.1485 301.457 96.969 300.698C96.7996 299.948 96.8864 299.163 97.2157 298.467C97.4646 297.838 97.8744 297.285 98.4045 296.862C98.8766 296.493 99.4301 296.24 100.019 296.126C100.65 296.014 101.295 296.014 101.926 296.126C102.616 296.265 103.292 296.466 103.945 296.728L110.27 299.426L104.707 312.428ZM102.868 308.882L104.124 305.894L102.419 305.18L101.231 304.69C100.856 304.543 100.464 304.446 100.064 304.4C99.7292 304.351 99.3871 304.397 99.0774 304.534C98.7549 304.697 98.5066 304.976 98.3821 305.314C98.2503 305.6 98.2111 305.919 98.2699 306.228C98.3602 306.475 98.4973 306.702 98.6737 306.898C98.8808 307.103 99.1241 307.27 99.3914 307.388L100.176 307.767L102.868 308.882ZM103.496 299.382L102.509 299.025C102.195 298.94 101.871 298.895 101.545 298.891C101.244 298.901 100.951 298.985 100.692 299.136C100.415 299.299 100.201 299.55 100.087 299.85C99.9503 300.076 99.8782 300.334 99.8782 300.597C99.8782 300.86 99.9503 301.119 100.087 301.344C100.435 301.754 100.883 302.069 101.388 302.259L104.976 303.775L106.345 300.608L103.496 299.382Z" fill="white"/>
<path d="M94.2955 292.289L96.8076 293.672L90.0787 305.961L87.3872 304.489L92.0749 295.992L81.062 301.01L78.6396 299.694L85.3685 287.338L88.0601 288.81L83.3499 297.196L94.2955 292.289Z" fill="white"/>
<path d="M76.4422 292.448L74.8946 294.433L73.4142 296.485L64.4424 290.263L71.1713 280.829L69.6685 279.781L73.5488 274.272L75.9936 275.989L73.6161 279.357L81.5337 284.888L83.844 281.431L86.2888 283.126L82.4309 288.634C82.2384 288.487 82.0182 288.38 81.7832 288.318C81.5481 288.257 81.3032 288.243 81.0627 288.278C80.6225 288.346 80.2063 288.523 79.8515 288.791C79.5118 289.01 79.1961 289.264 78.9095 289.549L77.8777 290.619L77.0029 291.645C76.7338 292.047 76.6216 292.292 76.4422 292.448ZM68.5246 289.839L72.6516 292.738L73.9301 291.065C74.3787 290.463 74.8048 289.883 75.2534 289.326L75.9487 288.501C76.1997 288.187 76.4693 287.89 76.7562 287.609C77.0545 287.316 77.369 287.041 77.6983 286.783C78.0281 286.541 78.3813 286.332 78.7524 286.159L73.6385 282.591L68.5246 289.839Z" fill="white"/>
<path d="M63.9525 279.444C64.26 279.054 64.5024 278.617 64.6702 278.15C64.8208 277.712 64.8966 277.253 64.8945 276.79C64.8677 276.327 64.7536 275.873 64.5581 275.452C64.3025 274.97 63.9604 274.539 63.5488 274.181C63.0851 273.778 62.5431 273.474 61.9563 273.288C61.3955 273.101 60.7828 273.141 60.2516 273.4L57.8741 271.348C58.4378 270.946 59.0794 270.665 59.7582 270.523C60.3963 270.411 61.049 270.411 61.6871 270.523C62.3286 270.637 62.9489 270.847 63.5263 271.147C64.1424 271.477 64.7149 271.882 65.231 272.352C66.003 272.968 66.65 273.725 67.1375 274.582C67.5559 275.349 67.7792 276.207 67.788 277.08C67.7845 277.962 67.6014 278.834 67.2497 279.644C66.8224 280.56 66.2633 281.409 65.5899 282.165C64.9584 282.927 64.1997 283.576 63.3469 284.083C62.581 284.542 61.7239 284.831 60.8348 284.93C59.969 285.045 59.0883 284.969 58.2554 284.707C56.3819 284.079 54.8339 282.74 53.9489 280.983C53.5809 280.217 53.3893 279.378 53.3882 278.529C53.3953 277.686 53.5706 276.852 53.9041 276.076C54.2913 275.263 54.7978 274.511 55.4068 273.846C55.7112 273.503 56.0332 273.175 56.3713 272.865L63.9525 279.444ZM56.9993 276.478C56.6829 276.822 56.4418 277.227 56.2912 277.669C56.1407 278.11 56.0839 278.578 56.1246 279.042C56.2696 279.919 56.7324 280.712 57.4255 281.273C57.8075 281.621 58.2582 281.887 58.7489 282.053C59.1662 282.198 59.6085 282.259 60.0498 282.232C60.4794 282.188 60.8975 282.067 61.2834 281.875C61.7036 281.686 62.09 281.429 62.4273 281.116L56.9993 276.478Z" fill="white"/>
<path d="M43.6737 271.795C42.9718 271.066 42.4161 270.211 42.0363 269.275C41.7288 268.44 41.5915 267.553 41.6326 266.665C41.6947 265.765 41.955 264.89 42.3952 264.101C43.3909 262.335 44.9105 260.917 46.7465 260.042C47.5577 259.65 48.4467 259.444 49.3484 259.44C50.2411 259.437 51.1229 259.635 51.9278 260.019C52.8474 260.486 53.6755 261.113 54.3726 261.871C55.0828 262.601 55.6394 263.466 56.0099 264.413C56.34 265.226 56.4781 266.103 56.4137 266.978C56.3463 267.866 56.0779 268.727 55.6286 269.498C55.1325 270.375 54.5048 271.172 53.767 271.862C53.0333 272.555 52.1928 273.127 51.2773 273.557C50.4652 273.945 49.5768 274.151 48.6755 274.159C47.7839 274.151 46.9045 273.953 46.0961 273.579C45.1737 273.156 44.3491 272.549 43.6737 271.795ZM52.4212 263.699C52.0092 263.233 51.4951 262.867 50.9184 262.629C50.4337 262.441 49.9105 262.372 49.3932 262.428C48.8512 262.481 48.3251 262.64 47.8456 262.896C47.3042 263.183 46.8058 263.543 46.3652 263.967C45.9154 264.373 45.5231 264.838 45.1989 265.35C44.8991 265.809 44.7004 266.325 44.6157 266.866C44.5191 267.38 44.5577 267.91 44.7279 268.405C44.932 268.982 45.2612 269.507 45.6923 269.944C46.0898 270.396 46.5895 270.747 47.1503 270.97C47.6308 271.174 48.1562 271.251 48.6755 271.193C49.2241 271.138 49.757 270.979 50.2455 270.724C50.7773 270.423 51.2738 270.064 51.7259 269.654C52.1706 269.24 52.5556 268.767 52.8698 268.249C53.1763 267.802 53.3758 267.29 53.453 266.755C53.5749 266.249 53.5749 265.722 53.453 265.216C53.2364 264.635 52.8825 264.115 52.4212 263.699Z" fill="white"/>
<path d="M29.5203 226.232C29.9899 227.125 30.2722 228.104 30.3502 229.109C30.4215 229.974 30.2911 230.844 29.9689 231.651C29.6518 232.497 29.1456 233.259 28.4886 233.882C27.0036 235.234 25.158 236.132 23.1728 236.469C22.2805 236.602 21.3699 236.541 20.5036 236.29C19.6789 236.029 18.9159 235.604 18.2607 235.041C17.5019 234.388 16.8904 233.582 16.4663 232.677C16.1248 232.031 15.8757 231.34 15.7261 230.625C15.5926 229.978 15.5926 229.31 15.7261 228.663C15.8404 228.008 16.0762 227.381 16.4215 226.812C16.8207 226.17 17.3473 225.616 17.9691 225.184L19.3822 228.016C18.9265 228.409 18.6379 228.959 18.5747 229.555C18.5156 230.237 18.6641 230.921 19.0009 231.518C19.2548 232.063 19.6307 232.544 20.0999 232.923C20.5272 233.227 21.0177 233.433 21.5354 233.525C22.0766 233.625 22.6316 233.625 23.1728 233.525C23.7534 233.384 24.3173 233.182 24.855 232.923C25.3926 232.667 25.891 232.336 26.3353 231.941C26.7629 231.612 27.102 231.183 27.3222 230.692C27.5489 230.226 27.6713 229.716 27.6811 229.198C27.6593 228.6 27.5062 228.014 27.2325 227.481C26.9366 226.84 26.4516 226.303 25.8419 225.942C25.5867 225.785 25.3023 225.68 25.0056 225.634C24.709 225.588 24.406 225.602 24.1148 225.674L22.7914 222.708C23.5163 222.484 24.2793 222.408 25.0344 222.485C25.7127 222.564 26.3685 222.776 26.9633 223.11C27.5527 223.446 28.0768 223.884 28.511 224.403C28.9182 224.971 29.257 225.585 29.5203 226.232Z" fill="white"/>
<path d="M12.4056 223.575L11.1496 220.118L16.0617 213.829L8.25618 212.134L7.08984 208.766L20.4354 203.971L21.4448 206.804L11.8225 210.238L19.942 212.067L20.1887 212.758L15.1421 219.449L24.7195 216.015L25.7512 218.825L12.4056 223.575Z" fill="white"/>
<path d="M4.17438 198.309C3.9143 197.327 3.86085 196.302 4.01737 195.298C4.15749 194.425 4.47826 193.589 4.95941 192.845C5.46656 192.1 6.13288 191.476 6.91078 191.016C7.77752 190.513 8.72658 190.166 9.71448 189.99C10.6956 189.742 11.7102 189.652 12.72 189.723C13.6179 189.802 14.489 190.068 15.277 190.503C16.0523 190.939 16.7133 191.55 17.2059 192.287C17.7406 193.126 18.1134 194.056 18.305 195.031C18.5605 196.013 18.6215 197.036 18.4844 198.041C18.3472 198.912 18.0179 199.743 17.52 200.472C17.0132 201.198 16.3553 201.806 15.591 202.256C14.7159 202.778 13.7614 203.154 12.7649 203.372C11.783 203.614 10.7679 203.697 9.75934 203.617C8.86795 203.54 8.00354 203.274 7.2248 202.836C6.49259 202.406 5.85857 201.829 5.36314 201.141C4.77797 200.287 4.37353 199.323 4.17438 198.309ZM15.7929 195.633C15.6748 195.034 15.4217 194.47 15.0527 193.982C14.7231 193.571 14.3004 193.242 13.8191 193.023C13.3182 192.798 12.7763 192.676 12.2266 192.667C11.6219 192.649 11.0178 192.716 10.4322 192.867C9.82803 192.987 9.24568 193.198 8.70515 193.492C8.21897 193.733 7.7906 194.075 7.44909 194.495C7.11561 194.895 6.88471 195.37 6.77621 195.878C6.64446 196.481 6.64446 197.104 6.77621 197.707C6.9031 198.296 7.15549 198.851 7.51638 199.335C7.83396 199.744 8.25068 200.066 8.72758 200.272C9.22844 200.497 9.77034 200.618 10.3201 200.628C10.9308 200.644 11.5411 200.584 12.1369 200.45C12.7243 200.31 13.2901 200.093 13.8191 199.803C14.3239 199.6 14.7818 199.296 15.1649 198.911C15.5074 198.517 15.7395 198.04 15.8377 197.528C15.9865 196.903 15.9711 196.25 15.7929 195.633Z" fill="white"/>
<path d="M0.77002 176.945L3.41671 176.61L4.06716 181.338L15.4838 179.821L15.8875 182.81L4.4709 184.326L5.09892 189.055L2.45224 189.411L0.77002 176.945Z" fill="white"/>
<path d="M20.1012 170.455V173.488L0.408025 174.224V171.324L2.40425 171.101C1.65427 170.615 1.0499 169.937 0.65475 169.139C0.230953 168.34 0.00053975 167.454 -0.0181371 166.552C-0.0813728 165.665 0.0486903 164.775 0.363165 163.942C0.675052 163.175 1.14931 162.483 1.7538 161.913C2.39876 161.326 3.16395 160.885 3.99675 160.619C4.99418 160.282 6.03853 160.101 7.09203 160.084C8.08779 160.04 9.08478 160.138 10.0527 160.374C10.8641 160.603 11.6249 160.981 12.2957 161.489C12.9818 161.974 13.5303 162.627 13.8882 163.385C14.3102 164.255 14.5324 165.207 14.5386 166.173C14.5824 167.01 14.4761 167.848 14.2246 168.648C13.9724 169.436 13.516 170.143 12.9013 170.7L20.1012 170.455ZM11.9592 166.753C11.9709 166.165 11.8401 165.584 11.5779 165.058C11.3279 164.597 10.9749 164.201 10.5462 163.898C10.1014 163.567 9.58804 163.338 9.0434 163.229C7.84281 162.941 6.58571 162.987 5.40981 163.363C4.8837 163.503 4.39409 163.754 3.97432 164.099C3.54802 164.46 3.22987 164.93 3.05471 165.459C2.8219 166.016 2.72209 166.619 2.76313 167.221C2.78112 167.798 2.93474 168.363 3.21172 168.871C3.45519 169.354 3.80844 169.774 4.24348 170.098C4.6842 170.445 5.19782 170.689 5.74626 170.811C6.31537 170.969 6.90564 171.036 7.49576 171.012C8.10535 170.989 8.70901 170.884 9.29013 170.7C9.81529 170.535 10.303 170.27 10.7256 169.919C11.15 169.526 11.4809 169.044 11.6943 168.508C11.9077 167.972 11.9982 167.395 11.9592 166.819V166.753Z" fill="white"/>
<path d="M8.39577 154.707C8.8983 154.716 9.39872 154.641 9.87612 154.484C10.3189 154.35 10.7306 154.131 11.0873 153.838C11.4545 153.549 11.7531 153.183 11.9621 152.767C12.1987 152.27 12.3358 151.732 12.3658 151.184C12.4076 150.58 12.3315 149.974 12.1415 149.399C11.9447 148.842 11.5332 148.385 10.9976 148.128L11.2219 145.006C11.8802 145.21 12.4904 145.544 13.0163 145.987C13.4972 146.407 13.8931 146.914 14.1826 147.481C14.4775 148.064 14.6817 148.689 14.7882 149.333C14.8797 150.021 14.8797 150.718 14.7882 151.407C14.7658 152.402 14.5605 153.384 14.1826 154.306C13.8049 155.095 13.2529 155.788 12.5677 156.335C11.8521 156.865 11.0355 157.245 10.1677 157.45C9.16299 157.694 8.12448 157.769 7.09485 157.674C6.09225 157.63 5.10523 157.411 4.17901 157.027C3.33395 156.702 2.56904 156.2 1.93606 155.555C1.30968 154.925 0.834335 154.163 0.545423 153.325C0.291744 152.41 0.230657 151.454 0.365987 150.515C0.368576 149.51 0.598558 148.519 1.03887 147.615C1.43229 146.892 1.97554 146.259 2.63279 145.759C3.29004 145.259 4.04637 144.904 4.8519 144.716C5.76266 144.504 6.70008 144.429 7.63316 144.493C8.08458 144.529 8.53379 144.589 8.97894 144.671L8.39577 154.707ZM6.57897 147.392C6.10853 147.353 5.63494 147.41 5.18744 147.559C4.73993 147.709 4.32802 147.948 3.97715 148.262C3.35068 148.912 2.99075 149.771 2.96781 150.671C2.91244 151.182 2.96593 151.698 3.12482 152.187C3.25965 152.607 3.4812 152.995 3.77528 153.325C4.07466 153.638 4.42308 153.902 4.80704 154.105C5.21866 154.306 5.65655 154.449 6.10795 154.529L6.57897 147.392Z" fill="white"/>
<path d="M3.235 129.507L5.85926 129.931L5.09665 134.637L16.4909 136.466L16.0647 139.432L4.62563 137.625L3.86303 142.331L1.23877 141.907L3.235 129.507Z" fill="white"/>
<path d="M3.7959 126.965L4.5585 124.021L9.20142 125.315L9.98646 122.237C10.1645 121.516 10.4123 120.814 10.7266 120.141C10.9942 119.559 11.3844 119.042 11.8705 118.624C12.354 118.237 12.9228 117.969 13.5303 117.843C14.2788 117.724 15.0446 117.769 15.7733 117.977C16.6055 118.136 17.3799 118.514 18.0162 119.07C18.5358 119.53 18.9294 120.113 19.1601 120.765C19.3854 121.425 19.4843 122.121 19.4517 122.817C19.4325 123.57 19.3271 124.318 19.1377 125.047L17.7022 130.667L3.7959 126.965ZM16.4237 124.556C16.5164 124.159 16.5839 123.757 16.6256 123.352C16.6838 122.998 16.6838 122.636 16.6256 122.281C16.5422 121.958 16.3805 121.659 16.1546 121.412C15.8754 121.133 15.5272 120.933 15.1453 120.832C14.7147 120.688 14.2473 120.696 13.8219 120.854C13.5154 121 13.2525 121.223 13.0593 121.501C12.8496 121.792 12.6904 122.116 12.5883 122.46C12.4761 122.839 12.364 123.174 12.2967 123.486L11.6911 125.85L15.7284 126.876L16.4237 124.556Z" fill="white"/>
<path d="M10.3667 104.796L12.6097 99.2425C12.8544 98.6553 13.1314 98.082 13.4395 97.5252C13.7171 96.9814 14.0892 96.4906 14.5386 96.0756C14.9656 95.6985 15.4832 95.4373 16.0414 95.3173C16.7165 95.1976 17.4122 95.2831 18.0376 95.5626C18.5986 95.7945 19.0921 96.1626 19.4731 96.6331C19.874 97.1397 20.1159 97.7525 20.1684 98.395C20.6177 97.7652 21.2775 97.3146 22.0301 97.1238C22.785 96.9668 23.5705 97.0527 24.273 97.3691C24.9075 97.6139 25.4704 98.0126 25.9104 98.5288C26.2825 99.006 26.5361 99.5638 26.6506 100.157C26.7627 100.776 26.7627 101.411 26.6506 102.03C26.5288 102.728 26.3255 103.409 26.045 104.06L23.4656 110.237L10.3667 104.796ZM13.8209 103.011L16.8264 104.26L17.5442 102.565C17.7012 102.186 17.8806 101.785 18.0376 101.383C18.1847 101.011 18.2827 100.621 18.3292 100.224C18.3589 99.8908 18.3129 99.5554 18.1946 99.2425C18.0211 98.9203 17.7333 98.6739 17.3871 98.5511C17.0976 98.4453 16.7796 98.4453 16.49 98.5511C16.2339 98.6233 16.0017 98.7618 15.8171 98.9525C15.6102 99.155 15.4361 99.3883 15.3012 99.6439L14.9423 100.447L13.8209 103.011ZM23.3758 103.614C23.5188 103.295 23.6387 102.968 23.7347 102.632C23.8421 102.324 23.8878 101.999 23.8693 101.673C23.8597 101.375 23.7749 101.083 23.6226 100.826C23.4594 100.55 23.2061 100.337 22.9048 100.224C22.6779 100.088 22.4182 100.016 22.1534 100.016C21.8887 100.016 21.6289 100.088 21.402 100.224C20.9798 100.561 20.6612 101.009 20.4824 101.517L18.9796 105.086L22.1646 106.424L23.3758 103.614Z" fill="white"/>
<path d="M30.5763 94.3613L29.2081 96.8592L16.7373 90.1686L18.3074 87.4031L26.853 92.0419L21.6718 81.1139L22.9952 78.7053L35.4436 85.3959L34.0081 88.1391L25.6194 83.6787C25.6194 83.6787 27.2792 87.2024 30.5763 94.3613Z" fill="white"/>
<path d="M30.3322 76.5821C29.6593 76.0469 28.9864 75.5562 28.336 75.0656L26.2725 73.5937L32.5079 64.6729L41.9956 71.2519L43.0722 69.7354L48.6123 73.5713L46.9077 76.0023L43.4984 73.7721L37.9807 81.667L41.3676 84.031L39.6629 86.4619L34.1228 82.626C34.4041 82.2397 34.5247 81.7603 34.4593 81.2878C34.4008 80.8404 34.2227 80.4168 33.9434 80.0612C33.7213 79.7313 33.4658 79.4249 33.1808 79.1469L32.0817 78.121L31.0724 77.2512C30.7359 76.8944 30.5116 76.6936 30.3322 76.5821ZM32.934 68.6872L30.0406 72.8354L31.7677 74.0174C32.3733 74.4634 32.9565 74.8872 33.5172 75.3332C34.0779 75.7793 34.0555 75.7793 34.3695 76.0246C34.6845 76.2741 34.9841 76.5422 35.2667 76.8274C35.5539 77.116 35.8235 77.4214 36.0742 77.7418C36.333 78.0717 36.5514 78.4311 36.7246 78.8123L40.2909 73.6829L32.934 68.6872Z" fill="white"/>
<path d="M43.3585 64.1161C43.7589 64.4221 44.2055 64.6629 44.6818 64.8298C45.113 64.9831 45.5701 65.0512 46.0276 65.0305C46.4964 65.0257 46.9574 64.9111 47.3734 64.696C47.8575 64.4418 48.2908 64.1017 48.6518 63.6924C49.057 63.2314 49.3624 62.6924 49.549 62.1089C49.731 61.5484 49.6826 60.9391 49.4145 60.414L51.478 58.05C52.2598 59.1417 52.5744 60.4971 52.3527 61.819C52.2383 62.4569 52.0266 63.0736 51.7247 63.6478C51.3935 64.2621 50.9948 64.838 50.5359 65.365C49.9102 66.1331 49.1504 66.7828 48.293 67.283C47.5135 67.6792 46.6558 67.9 45.7809 67.9298C44.8585 67.9175 43.9491 67.7124 43.1117 67.3276C42.1819 66.9064 41.3202 66.3502 40.5548 65.6773C39.7921 65.0451 39.1403 64.2915 38.6258 63.4471C38.1666 62.6822 37.869 61.8323 37.7511 60.9492C37.6472 60.0881 37.7236 59.2149 37.9754 58.3845C38.6145 56.5205 39.9578 54.9769 41.7211 54.0802C42.4835 53.7139 43.3192 53.5233 44.1659 53.5227C45.0156 53.5183 45.8565 53.6932 46.6332 54.0356C47.4961 54.3906 48.2924 54.8883 48.9883 55.5075C49.3335 55.8102 49.6629 56.1303 49.9752 56.4665L43.3585 64.1161ZM46.3192 57.2025C45.969 56.8873 45.5572 56.6473 45.1095 56.4977C44.6618 56.348 44.1879 56.2919 43.7173 56.3327C42.8304 56.4766 42.03 56.9462 41.4744 57.6485C41.1327 58.0264 40.8663 58.4654 40.6894 58.942C40.5517 59.3587 40.4983 59.7983 40.5323 60.2356C40.5782 60.6668 40.6917 61.0882 40.8688 61.4845C41.0758 61.8914 41.3401 62.2669 41.6538 62.5996L46.3192 57.2025Z" fill="white"/>
<path d="M50.9644 43.9327C51.705 43.2278 52.5724 42.6679 53.5214 42.2823C54.3575 41.9647 55.2521 41.8279 56.1456 41.8809C57.0428 41.9316 57.9169 42.1832 58.7026 42.6168C59.5946 43.0959 60.3985 43.7217 61.0801 44.4679C61.7905 45.1965 62.3809 46.032 62.8297 46.9434C63.1976 47.7431 63.4034 48.607 63.4352 49.4859C63.4401 50.3738 63.2407 51.2511 62.8521 52.0506C62.3788 52.9872 61.7231 53.8211 60.9231 54.5038C60.2208 55.2189 59.382 55.7876 58.4559 56.1765C57.6383 56.5047 56.7559 56.642 55.8765 56.5779C54.9868 56.5084 54.1225 56.2498 53.342 55.8196C52.455 55.3238 51.6526 54.6915 50.9644 53.9463C50.2564 53.229 49.6728 52.4 49.2373 51.493C48.8436 50.6865 48.6367 49.8025 48.6317 48.906C48.6214 48.02 48.8131 47.1431 49.1925 46.3413C49.6168 45.4296 50.2191 44.6109 50.9644 43.9327ZM59.1736 52.5858C59.6295 52.1693 59.9891 51.6596 60.2278 51.0916C60.4046 50.6065 60.4735 50.0891 60.4297 49.5751C60.3688 49.0348 60.2011 48.5118 59.9362 48.0362C59.649 47.5031 59.2948 47.0085 58.8821 46.5643C58.4605 46.1217 57.986 45.7322 57.469 45.4046C56.998 45.1253 56.482 44.9291 55.9438 44.8247C55.4245 44.747 54.8941 44.7929 54.3961 44.9585C53.8158 45.1615 53.2874 45.4889 52.8485 45.9175C52.4055 46.3229 52.0538 46.8169 51.8167 47.3672C51.6223 47.8557 51.5455 48.3827 51.5924 48.906C51.6638 49.444 51.8309 49.9651 52.0859 50.4448C52.3889 50.9736 52.75 51.4672 53.1625 51.9168C53.5785 52.359 54.054 52.7417 54.5756 53.0542C55.0319 53.3465 55.5432 53.5437 56.0784 53.634C56.5958 53.7198 57.1264 53.6816 57.626 53.5225C58.2104 53.3393 58.7415 53.0179 59.1736 52.5858Z" fill="white"/>
</g>
<defs>
<clipPath id="clip0_371_2771">
<rect width="324.825" height="323" rx="80" fill="white"/>
</clipPath>
</defs>
</svg>
