<svg width="40" height="40" viewBox="0 0 40 40" fill="none" xmlns="http://www.w3.org/2000/svg">
<g clip-path="url(#clip0_377_3475)">
<path d="M5.95388 18.6692L5.80862 19.5023L6.6086 19.228C7.52836 18.9127 8.50821 18.7346 9.53028 18.7346C14.5131 18.7346 18.5521 22.7736 18.5521 27.7564C18.5521 32.7392 14.5131 36.7782 9.53028 36.7782C4.55093 36.7782 0.513922 32.7446 0.50851 27.7664C0.508739 27.7607 0.508977 27.7528 0.508977 27.7434V27.7335L0.508584 27.7236C0.503942 27.6065 0.361955 23.794 1.43795 19.1235C2.51571 14.4453 4.79796 8.9806 9.5848 5.46587C10.696 4.65 11.5081 4.06772 12.0798 3.6923C12.0838 3.68967 12.0877 3.68705 12.0917 3.68445C11.9486 3.94397 11.7731 4.25032 11.5692 4.60515C11.5509 4.63694 11.5324 4.66908 11.5138 4.70154C9.94719 7.42631 7.02927 12.5015 5.95388 18.6692Z" stroke="#D81920"/>
<path d="M26.9017 18.6692L26.7564 19.5023L27.5564 19.228C28.4761 18.9127 29.4559 18.7346 30.4781 18.7346C35.4608 18.7346 39.5 22.7736 39.5 27.7564C39.5 32.7392 35.4609 36.7782 30.4781 36.7782C25.4987 36.7782 21.4617 32.7446 21.4563 27.7664C21.4565 27.7607 21.4568 27.7528 21.4568 27.7434V27.7334L21.4564 27.7234C21.4517 27.6065 21.3097 23.794 22.3857 19.1235C23.4635 14.4453 25.7457 8.9806 30.5326 5.46587C31.6438 4.65 32.4559 4.06772 33.0275 3.6923C33.0315 3.68967 33.0355 3.68706 33.0395 3.68445C32.8964 3.94397 32.7209 4.25032 32.517 4.60515C32.4987 4.63694 32.4802 4.66907 32.4615 4.70154C30.895 7.4263 27.977 12.5015 26.9017 18.6692Z" stroke="#D81920"/>
</g>
<defs>
<clipPath id="clip0_377_3475">
<rect width="40" height="40" fill="white"/>
</clipPath>
</defs>
</svg>
